<?xml version="1.0" encoding="UTF-8"?>
<!DOCTYPE svg PUBLIC "-//W3C//DTD SVG 1.1//EN" "http://www.w3.org/Graphics/SVG/1.1/DTD/svg11.dtd">
<!-- Creator: CorelDRAW X8 -->
<svg xmlns="http://www.w3.org/2000/svg" xml:space="preserve" width="8775px" height="3265px" version="1.1" shape-rendering="geometricPrecision" text-rendering="geometricPrecision" image-rendering="optimizeQuality" fill-rule="evenodd" clip-rule="evenodd"
viewBox="0 0 7306 2719"
 xmlns:xlink="http://www.w3.org/1999/xlink">
 <g id="Layer_x0020_1">
  <metadata id="CorelCorpID_0Corel-Layer"/>
  <g id="_2041663980240">
   <polygon fill="#FEFEFE" fill-rule="nonzero" points="2760,2142 2864,2142 3176,1348 3076,1348 2813,2027 2553,1348 2453,1348 "/>
   <path fill="#FEFEFE" fill-rule="nonzero" d="M3413 1751c-2,-43 3,-87 10,-125 8,-41 23,-74 44,-105 18,-30 46,-53 81,-71 34,-18 77,-26 128,-23l0 -100c-43,0 -82,6 -115,16 -33,10 -61,28 -84,53 -26,26 -46,59 -61,100l-3 0 0 -148 -94 0 0 794 94 0 0 -391 0 0z"/>
   <polygon fill="#FEFEFE" fill-rule="nonzero" points="3939,2142 3939,1348 3845,1348 3845,2142 "/>
   <polygon fill="#FEFEFE" fill-rule="nonzero" points="4263,2142 4263,1841 4414,1698 4715,2142 4820,2142 4483,1634 4784,1348 4656,1348 4263,1726 4263,1039 4169,1039 4169,2142 "/>
   <path fill="#FEFEFE" fill-rule="nonzero" d="M4912 1894c2,36 10,72 23,105 15,33 35,61 61,84 25,26 59,44 94,59 36,13 79,20 128,20 46,0 89,-5 130,-15 41,-10 74,-23 105,-43 28,-18 51,-44 66,-72 18,-31 26,-64 26,-100 0,-38 -8,-71 -23,-97 -13,-25 -33,-45 -59,-63 -23,-16 -51,-28 -82,-39 -30,-10 -61,-20 -94,-28 -33,-7 -64,-15 -95,-23 -30,-7 -58,-18 -81,-28 -26,-10 -46,-25 -59,-43 -15,-15 -23,-38 -23,-67 0,-25 8,-51 20,-71 16,-20 36,-36 62,-46 28,-13 61,-18 99,-18 39,0 74,5 105,15 31,13 56,31 74,54 20,26 33,59 38,97l95 0c-8,-59 -26,-107 -51,-143 -28,-38 -62,-64 -105,-82 -46,-15 -94,-23 -153,-23 -61,0 -112,11 -153,29 -41,20 -74,46 -97,79 -21,35 -33,74 -33,117 0,41 7,72 22,97 13,26 34,46 59,64 23,15 51,28 82,36 31,10 61,18 94,25 34,5 64,13 95,21 30,5 59,15 81,25 26,10 46,26 59,44 16,17 23,40 23,68 0,26 -7,52 -20,72 -16,23 -39,41 -67,54 -30,15 -66,23 -112,23 -46,0 -84,-8 -117,-18 -34,-13 -59,-34 -80,-62 -20,-25 -33,-63 -43,-107l-94 0 0 0z"/>
   <path fill="#FEFEFE" fill-rule="nonzero" d="M5820 2142l0 -429c0,-26 0,-51 3,-77 3,-23 8,-48 18,-71 10,-28 25,-54 46,-77 20,-23 46,-43 74,-56 30,-15 64,-23 102,-23 51,0 92,8 123,23 30,18 51,41 66,72 13,33 20,71 20,120l0 518 92 0 0 -521c3,-20 0,-43 0,-64 -2,-20 -5,-41 -13,-58 -5,-21 -12,-41 -25,-59 -21,-28 -43,-49 -69,-67 -26,-15 -54,-28 -82,-35 -30,-8 -64,-11 -94,-11 -38,0 -72,6 -102,16 -28,13 -56,28 -82,46 -25,20 -51,43 -77,69l0 -419 -91 0 0 1103 91 0 0 0z"/>
   <path fill="#FEFEFE" fill-rule="nonzero" d="M7117 1848c0,41 -10,74 -25,105 -18,28 -39,54 -67,71 -28,18 -58,34 -94,41 -36,10 -72,16 -107,16 -23,0 -44,-3 -64,-11 -23,-5 -41,-12 -56,-25 -18,-13 -31,-26 -41,-44 -8,-17 -13,-40 -13,-63 0,-36 8,-67 26,-90 20,-23 46,-41 79,-53 33,-13 74,-23 120,-26 28,-2 56,-5 81,-8 29,-2 54,-7 80,-12 28,-5 53,-13 81,-23l0 122 0 0zm-286 -153c-94,13 -166,38 -212,79 -45,41 -68,95 -68,161 0,38 7,72 20,100 15,28 36,53 61,71 23,18 54,33 84,43 34,8 67,13 103,13 58,0 112,-10 163,-33 51,-23 97,-56 135,-97 0,18 3,36 8,51 2,18 10,31 20,44 11,10 26,17 46,22 8,0 16,3 21,3 7,0 15,0 23,0 7,0 18,0 28,-3 7,0 18,-2 25,-5 8,-2 16,-5 18,-7l0 -72c-25,10 -46,16 -59,13 -15,0 -25,-8 -30,-18 -5,-13 -8,-30 -8,-56l0 -431c0,-46 -7,-85 -23,-115 -15,-34 -36,-59 -61,-77 -26,-20 -59,-33 -92,-41 -36,-10 -74,-13 -115,-13 -43,0 -87,6 -125,13 -38,10 -71,26 -102,46 -28,23 -54,49 -72,82 -17,33 -28,74 -33,120l95 0c7,-46 20,-82 41,-107 20,-26 48,-44 81,-57 31,-10 69,-15 113,-15 48,0 86,8 117,21 28,15 51,33 64,56 13,25 20,53 20,84 0,10 -2,20 -2,31 -3,10 -5,20 -10,30 -6,10 -13,18 -23,21 -11,5 -23,10 -39,12 -13,6 -28,8 -43,11 -15,2 -28,2 -41,5l-128 15 0 0z"/>
   <polygon fill="#FEFEFE" points="0,2287 7301,2287 7301,2354 0,2354 "/>
   <path fill="#FEFEFE" fill-rule="nonzero" d="M2469 2586c0,-3 0,-5 2,-8 0,-2 3,-5 3,-7 2,-3 5,-5 10,-5 2,-3 8,-3 13,-3 10,0 18,3 23,5 2,3 5,8 5,15 0,3 0,6 0,8 -3,3 -3,5 -5,5 -3,0 -3,0 -5,0l-34 5c-7,0 -12,3 -18,5 -5,3 -7,6 -10,8 -2,3 -5,5 -5,10 -2,3 -2,5 -2,8 -3,3 -3,5 -3,8 0,7 3,12 5,17 3,6 8,11 15,13 6,3 11,5 18,5 8,0 13,0 18,-2 3,0 8,-3 10,-5 6,-3 8,-3 11,-5 2,-3 5,-6 7,-8 0,2 0,5 0,8 0,2 3,2 3,5 2,2 5,2 8,5 2,0 5,0 10,0 2,0 5,0 7,0 0,0 3,0 5,0l0 -16c-2,0 -2,0 -5,0 0,0 -2,0 -2,0 -3,0 -5,0 -5,-2 -3,0 -3,-3 -3,-5l0 -69c0,-5 0,-10 -2,-15 0,-3 -3,-6 -8,-8 -3,-3 -5,-5 -8,-8 -5,0 -7,-2 -10,-2 -5,0 -8,-3 -10,-3 -3,0 -5,0 -8,0 -7,0 -18,3 -25,5 -8,3 -13,8 -18,13 -3,5 -5,13 -5,23l18 0 0 0zm56 43c0,6 0,8 -3,11 -2,5 -5,7 -7,10 -6,2 -8,5 -13,5 -5,2 -10,2 -16,2 -7,0 -12,-2 -15,-5 -5,-2 -5,-10 -5,-15 0,-5 0,-8 3,-10 0,-3 2,-5 5,-5 2,-3 5,-3 10,-3 2,-2 5,-2 8,-2 5,0 10,-3 15,-3 5,0 8,0 10,-2 3,0 3,0 5,0 0,0 3,-3 3,-3l0 20 0 0zm457 -12c0,-5 0,-8 2,-13 0,-5 0,-10 0,-15 3,-6 5,-8 8,-13 2,-3 5,-5 8,-8 5,-2 10,-5 15,-5 8,0 13,3 15,5 5,3 8,5 10,8 3,2 6,7 6,10 2,5 2,10 2,13 0,5 0,7 0,10 0,8 0,15 0,20 -2,6 -5,11 -8,16 -2,2 -5,7 -10,10 -5,0 -7,2 -15,2 -3,0 -5,0 -8,-2 -2,0 -5,0 -7,-3 -6,-2 -8,-5 -11,-7 -2,-3 -2,-8 -5,-13 0,-3 -2,-10 -2,-15l0 0zm-18 102l20 0 0 -62 0 0c3,6 3,8 8,11 2,2 5,2 10,5 5,2 8,2 15,2 6,0 13,-2 18,-2 5,-3 11,-5 13,-8 5,-5 8,-8 10,-13 3,-5 5,-10 8,-15 0,-5 3,-10 3,-15 2,-5 2,-10 2,-16 0,-7 -2,-15 -5,-23 -3,-7 -5,-15 -10,-20 -3,-5 -8,-10 -16,-13 -5,-2 -12,-5 -20,-5 -8,0 -10,3 -15,3 -5,2 -8,2 -11,5 -2,2 -5,5 -7,7 -3,3 -3,6 -5,6l0 0 0 -16 -18 0 0 169 0 0zm314 -118c0,-5 0,-10 2,-12 0,-6 3,-8 5,-11 3,-5 6,-5 11,-7 2,-3 7,-3 12,-3l8 0 0 -23c0,0 -2,0 -2,0 0,0 -3,0 -3,0 -5,0 -10,3 -15,3 -3,2 -8,5 -11,10 -2,2 -5,8 -10,13l0 0 0 -21 -18 0 0 123 21 0 0 -72 0 0zm296 31c0,3 0,5 -3,8 0,5 -2,7 -5,10 -2,2 -7,2 -10,5 -5,2 -8,2 -13,2 -7,0 -15,-2 -20,-5 -5,-2 -10,-7 -13,-12 -2,-8 -2,-13 -2,-23l89 0c0,-11 -3,-21 -3,-28 -2,-11 -7,-18 -10,-23 -5,-8 -10,-11 -18,-16 -5,-2 -12,-5 -23,-5 -10,0 -18,3 -25,5 -8,5 -13,10 -18,16 -5,5 -8,12 -10,20 -3,10 -5,18 -5,28 0,8 2,18 5,23 2,8 5,15 10,20 5,6 10,11 18,13 5,3 13,5 23,5 5,0 10,0 15,-2 5,0 8,0 10,-3 3,0 5,-2 8,-2 3,-3 8,-8 10,-11 3,-2 3,-5 5,-10 3,-2 3,-5 5,-7 0,-3 0,-5 0,-8l-20 0 0 0zm-66 -31c0,-5 0,-10 2,-15 3,-3 5,-8 8,-10 2,-5 5,-8 10,-8 5,-2 8,-5 13,-5 7,0 13,3 15,5 5,0 8,3 10,8 3,2 5,7 8,10 0,5 0,10 3,15l-69 0 0 0zm362 -18c0,0 0,-2 0,-5 0,-2 -2,-5 -2,-7 0,-3 -3,-5 -6,-8 -2,-3 -5,-5 -7,-8 -3,-2 -8,-5 -13,-7 -5,0 -13,-3 -18,-3 -8,0 -13,3 -18,3 -5,2 -10,5 -15,7 -5,3 -8,8 -10,13 -3,5 -5,10 -5,18 0,5 2,10 5,13 2,5 5,7 10,10 3,3 8,5 15,5l23 5c5,3 10,5 13,5 5,3 8,3 8,5 2,3 2,6 2,8 0,5 0,8 0,10 -2,3 -5,5 -7,5 -3,3 -6,3 -8,3 -5,2 -8,2 -13,2 -5,0 -13,0 -15,-2 -5,-3 -8,-5 -10,-8 -3,-2 -5,-5 -5,-7 0,-3 0,-5 0,-8l-21 0c0,3 0,8 0,10 3,5 3,8 5,13 3,2 5,5 8,10 5,3 10,5 15,8 8,0 15,2 26,2 5,0 12,0 18,-2 5,-3 10,-5 15,-8 5,-5 8,-8 10,-13 3,-5 3,-10 3,-17 2,-6 0,-11 -3,-16 -2,-2 -5,-7 -10,-10 -5,-3 -13,-5 -21,-8l-20 -5c-5,0 -10,-2 -13,-2 -2,-3 -5,-3 -7,-5 0,-3 -3,-6 -3,-8 0,-3 3,-5 3,-8 0,-2 2,-2 5,-5 2,-2 2,-2 5,-2 2,0 5,-3 7,-3 3,0 3,0 6,0 5,0 10,0 15,3 2,2 5,2 8,5 2,2 2,5 5,7 0,3 0,3 0,5l20 0 0 0zm271 49c0,3 -3,5 -3,8 -2,5 -5,7 -8,10 -2,2 -5,2 -7,5 -5,2 -10,2 -15,2 -8,0 -13,-2 -18,-5 -5,-2 -11,-7 -13,-12 -3,-8 -5,-13 -5,-23l89 0c0,-11 0,-21 -2,-28 -3,-11 -6,-18 -11,-23 -2,-8 -7,-11 -15,-16 -8,-2 -15,-5 -23,-5 -10,0 -20,3 -25,5 -8,5 -16,10 -21,16 -2,5 -8,12 -10,20 -3,10 -3,18 -3,28 0,8 0,18 3,23 2,8 8,15 13,20 2,6 10,11 15,13 8,3 15,5 23,5 8,0 13,0 18,-2 2,0 7,0 10,-3 3,0 5,-2 5,-2 5,-3 8,-8 10,-11 3,-2 5,-5 8,-10 0,-2 3,-5 3,-7 2,-3 2,-5 2,-8l-20 0 0 0zm-69 -31c2,-5 2,-10 5,-15 0,-3 2,-8 5,-10 5,-5 8,-8 13,-8 2,-2 7,-5 13,-5 5,0 10,3 15,5 5,0 7,3 10,8 3,2 5,7 5,10 3,5 3,10 3,15l-69 0 0 0zm375 -12c0,-8 -3,-13 -3,-18 -2,-5 -5,-11 -7,-13 -3,-3 -8,-5 -10,-8 -5,-2 -8,-2 -13,-2 -3,-3 -8,-3 -10,-3 -5,0 -11,3 -16,3 -2,2 -7,2 -10,5 -2,2 -5,5 -8,7 -2,3 -2,6 -5,6l0 0 0 -16 -18 0 0 123 21 0 0 -69c0,-5 0,-10 0,-15 2,-6 5,-11 8,-13 2,-3 5,-5 7,-8 3,0 5,-2 8,-2 2,0 5,-3 8,-3 7,0 12,3 15,5 5,3 8,5 10,10 0,5 3,11 3,18l0 77 20 0 0 -84 0 0zm235 -23l0 -16 -21 0 0 -35 -20 0 0 35 -18 0 0 16 18 0 0 81c0,3 0,8 0,10 0,3 3,6 5,8 0,3 3,5 8,5 2,3 5,3 10,3 3,0 5,0 8,0 2,0 5,0 10,0l0 -18 -8 0c-2,0 -2,0 -5,0 0,0 -2,0 -2,0 -3,0 -3,-3 -6,-3 0,-2 0,-5 0,-7l0 -79 21 0 0 0zm196 20c0,-3 0,-5 3,-8 0,-2 0,-5 3,-7 2,-3 5,-5 7,-5 5,-3 10,-3 16,-3 10,0 17,3 20,5 5,3 8,8 8,15 0,3 0,6 0,8 -3,3 -3,5 -5,5 -3,0 -3,0 -6,0l-33 5c-7,0 -13,3 -18,5 -5,3 -7,6 -10,8 -2,3 -5,5 -8,10 0,3 0,5 -2,8 0,3 0,5 0,8 0,7 2,12 5,17 3,6 8,11 13,13 7,3 13,5 20,5 8,0 13,0 16,-2 5,0 10,-3 12,-5 5,-3 8,-3 11,-5 2,-3 5,-6 7,-8 0,2 0,5 0,8 0,2 3,2 3,5 2,2 5,2 7,5 3,0 5,0 11,0 2,0 5,0 5,0 2,0 5,0 5,0l0 -16c0,0 0,0 -3,0 0,0 -2,0 -2,0 -3,0 -5,0 -5,-2 -3,0 -3,-3 -3,-5l0 -69c0,-5 0,-10 -3,-15 -2,-3 -5,-6 -7,-8 -3,-3 -5,-5 -8,-8 -5,0 -7,-2 -10,-2 -5,0 -8,-3 -10,-3 -3,0 -5,0 -8,0 -10,0 -18,3 -25,5 -8,3 -13,8 -18,13 -3,5 -5,13 -5,23l17 0 0 0zm57 43c0,6 0,8 -3,11 -2,5 -5,7 -10,10 -3,2 -8,5 -10,5 -5,2 -11,2 -16,2 -7,0 -12,-2 -15,-5 -5,-2 -8,-10 -5,-15 0,-5 0,-8 2,-10 0,-3 3,-5 6,-5 2,-3 5,-3 7,-3 5,-2 8,-2 10,-2 6,0 11,-3 16,-3 2,0 7,0 10,-2 3,0 3,0 5,0 0,0 3,-3 3,-3l0 20 0 0zm260 -63l0 -16 -20 0 0 -35 -21 0 0 35 -15 0 0 16 15 0 0 81c0,3 0,8 0,10 3,3 3,6 5,8 3,3 5,5 8,5 2,3 8,3 13,3 0,0 2,0 5,0 2,0 5,0 10,0l0 -18 -8 0c0,0 -2,0 -2,0 -3,0 -5,0 -5,0 -3,0 -3,-3 -3,-3 -2,-2 -2,-5 -2,-7l0 -79 20 0 0 0zm199 -16l-20 0 0 123 20 0 0 -123zm0 -23l0 -23 -20 0 0 23 20 0zm184 85c0,5 0,10 2,17 3,6 3,13 8,18 3,5 5,10 10,13 5,5 11,8 16,10 7,3 12,5 20,5 8,0 15,-2 23,-5 5,-2 10,-5 15,-10 5,-3 8,-8 11,-13 2,-5 5,-12 7,-18 0,-7 3,-12 3,-17 0,-8 -3,-13 -3,-21 -2,-5 -5,-13 -7,-18 -3,-5 -6,-10 -11,-13 -5,-5 -10,-7 -15,-10 -8,-2 -15,-5 -23,-5 -8,0 -13,3 -20,5 -5,3 -11,5 -16,10 -5,3 -7,8 -10,13 -5,5 -5,13 -8,18 -2,8 -2,13 -2,21zm20 0c0,-6 3,-8 3,-13 0,-3 0,-8 2,-13 3,-3 3,-8 6,-10 5,-5 7,-8 12,-10 3,0 8,-3 13,-3 8,0 13,3 15,3 6,2 8,5 11,10 2,2 5,7 7,10 0,5 3,10 3,13 0,5 0,7 0,13 0,2 0,5 0,10 0,2 -3,7 -3,13 -2,2 -5,7 -7,10 -3,5 -5,7 -11,10 -2,0 -7,2 -15,2 -5,0 -10,-2 -13,-2 -5,-3 -7,-5 -12,-10 -3,-3 -3,-8 -6,-10 -2,-6 -2,-11 -2,-13 0,-5 -3,-8 -3,-10zm376 -23c0,-8 0,-13 -3,-18 0,-5 -2,-11 -5,-13 -5,-3 -8,-5 -10,-8 -5,-2 -8,-2 -13,-2 -3,-3 -8,-3 -10,-3 -8,0 -10,3 -16,3 -5,2 -7,2 -10,5 -2,2 -5,5 -7,7 -3,3 -6,6 -6,6l0 0 0 -16 -20 0 0 123 20 0 0 -69c0,-5 3,-10 3,-15 3,-6 5,-11 5,-13 3,-3 5,-5 10,-8 3,0 5,-2 8,-2 3,0 5,-3 8,-3 7,0 12,3 15,5 5,3 8,5 8,10 2,5 2,11 2,18l0 77 21 0 0 -84 0 0zm434 28c0,-5 0,-8 0,-13 0,-5 0,-10 2,-15 0,-6 3,-8 5,-13 3,-3 5,-5 10,-8 3,-2 8,-5 16,-5 5,0 10,3 15,5 3,3 8,5 10,8 0,2 3,7 5,10 0,5 0,10 0,13 3,5 3,7 3,10 0,8 -3,15 -3,20 -2,6 -2,11 -7,16 -3,2 -5,7 -10,10 -3,0 -8,2 -13,2 -3,0 -5,0 -10,-2 -3,0 -6,0 -8,-3 -3,-2 -5,-5 -8,-7 -2,-3 -5,-8 -7,-13 0,-3 0,-10 0,-15l0 0zm-21 102l21 0 0 -62 0 0c2,6 5,8 7,11 3,2 8,2 10,5 6,2 11,2 16,2 7,0 13,-2 18,-2 5,-3 10,-5 15,-8 3,-5 5,-8 10,-13 3,-5 3,-10 5,-15 3,-5 3,-10 5,-15 0,-5 0,-10 0,-16 0,-7 0,-15 -2,-23 -3,-7 -8,-15 -10,-20 -5,-5 -11,-10 -18,-13 -5,-2 -13,-5 -21,-5 -5,0 -10,3 -15,3 -3,2 -8,2 -10,5 -3,2 -5,5 -8,7 0,3 -2,6 -2,6l-3 0 0 -16 -18 0 0 169 0 0zm284 -107c0,5 0,10 2,17 3,6 3,13 8,18 2,5 5,10 10,13 5,5 10,8 15,10 8,3 13,5 21,5 7,0 15,-2 23,-5 5,-2 10,-5 15,-10 5,-3 8,-8 10,-13 3,-5 5,-12 8,-18 0,-7 2,-12 2,-17 0,-8 -2,-13 -2,-21 -3,-5 -5,-13 -8,-18 -2,-5 -5,-10 -10,-13 -5,-5 -10,-7 -15,-10 -8,-2 -16,-5 -23,-5 -8,0 -13,3 -21,5 -5,3 -10,5 -15,10 -5,3 -8,8 -10,13 -5,5 -5,13 -8,18 -2,8 -2,13 -2,21zm20 0c0,-6 3,-8 3,-13 0,-3 0,-8 2,-13 3,-3 3,-8 8,-10 2,-5 5,-8 10,-10 2,0 8,-3 13,-3 7,0 12,3 15,3 5,2 8,5 10,10 3,2 5,7 8,10 0,5 2,10 2,13 0,5 0,7 0,13 0,2 0,5 0,10 0,2 -2,7 -2,13 -3,2 -5,7 -8,10 -2,5 -5,7 -10,10 -3,0 -8,2 -15,2 -5,0 -11,-2 -13,-2 -5,-3 -8,-5 -10,-10 -5,-3 -5,-8 -8,-10 -2,-6 -2,-11 -2,-13 0,-5 -3,-8 -3,-10zm299 -11c0,-5 2,-10 2,-12 3,-6 5,-8 8,-11 2,-5 5,-5 10,-7 3,-3 8,-3 13,-3l7 0 0 -23c-2,0 -2,0 -2,0 0,0 -3,0 -3,0 -5,0 -10,3 -15,3 -2,2 -8,5 -10,10 -5,2 -8,8 -10,13l0 0 0 -21 -21 0 0 123 21 0 0 -72 0 0zm268 -35l0 -16 -18 0 0 -35 -21 0 0 35 -17 0 0 16 17 0 0 81c0,3 0,8 0,10 0,3 3,6 6,8 0,3 2,5 7,5 3,3 5,3 10,3 3,0 5,0 8,0 3,0 5,0 8,0l0 -18 -5 0c-3,0 -3,0 -6,0 0,0 -2,0 -2,0 -3,0 -3,-3 -5,-3 0,-2 0,-5 0,-7l0 -79 18 0 0 0z"/>
   <path fill="#B0CB1F" fill-rule="nonzero" d="M1700 705l10 38 0 0 -30 10 -31 13 -28 10 -25 13 -23 13 -23 12 -18 16 -18 15 -18 15 -13 16 -13 17 -10 16 -10 18 -8 18 -5 20 -2 18 -3 20 -2 21 0 20 2 21 5 23 5 20 5 23 11 23 7 25 13 23 13 26 13 23 17 25 16 26 20 25 18 26 -31 26 -20 -29 -20 -25 -18 -26 -16 -25 -15 -28 -15 -26 -10 -25 -13 -26 -8 -25 -7 -23 -6 -26 -5 -25 -2 -23 0 -23 0 -26 5 -23 2 -23 8 -20 10 -23 10 -21 13 -20 13 -18 18 -18 18 -18 20 -18 21 -15 25 -15 26 -15 28 -13 28 -13 33 -10 33 -10 0 0 0 0zm220 -97l-39 12 36 5 0 3 0 0 -2 0 0 3 -3 2 0 3 -2 2 -3 3 -5 2 -3 3 -2 5 -5 3 -5 5 -6 2 -5 5 -5 5 -7 3 -6 5 -7 5 -8 5 -8 5 -10 5 -7 3 -11 5 -10 5 -10 5 -13 5 -10 6 -13 2 -13 5 -12 5 -16 3 -10 -38 13 -6 13 -2 12 -5 11 -3 10 -5 10 -5 10 -2 11 -6 7 -5 8 -5 10 -2 5 -5 8 -6 7 -2 6 -5 5 -5 5 -3 5 -2 5 -6 3 -2 5 -3 2 -5 3 -2 2 -3 3 0 2 -2 0 -3 3 0 0 -3 0 0 0 0 0 0 36 6 0 0zm-36 -6l26 -35 10 41 -36 -6zm46 526l-36 -20 0 0 8 -15 5 -13 5 -18 5 -15 3 -18 2 -18 3 -20 2 -18 0 -21 0 -20 0 -21 0 -20 -2 -20 -3 -21 0 -20 -2 -21 -3 -18 -5 -20 -2 -18 -3 -18 -3 -15 -2 -15 -5 -16 -3 -12 -2 -13 -3 -13 -2 -8 -3 -7 0 -8 -3 -5 0 -3 0 0 39 -12 2 2 0 3 0 5 3 7 2 8 3 10 2 11 3 12 3 16 2 12 5 18 3 16 2 17 3 21 5 18 3 20 2 21 0 20 3 23 2 20 0 21 0 23 0 20 0 23 -2 21 -3 20 -2 20 -3 18 -5 21 -8 18 -5 17 -10 18 0 0zm-370 34l36 -21 0 0 5 8 5 7 7 8 5 5 8 8 8 5 7 5 11 5 10 5 8 3 10 2 10 3 10 2 13 3 10 0 10 0 13 0 10 -3 11 -2 12 -3 11 -2 10 -5 10 -5 13 -5 10 -8 10 -5 8 -10 10 -8 10 -10 8 -13 8 -10 7 -13 36 20 -8 13 -10 15 -10 13 -10 13 -13 10 -10 10 -13 11 -13 7 -13 8 -12 5 -16 5 -12 5 -13 3 -16 2 -12 3 -13 0 -15 0 -13 0 -13 -3 -13 -2 -12 -3 -13 -5 -13 -5 -10 -5 -13 -5 -10 -8 -10 -8 -11 -7 -7 -8 -8 -10 -8 -10 -7 -10 0 0 0 0zm291 -138l-41 0 0 0 -3 -13 -2 -13 -3 -13 -7 -10 -5 -7 -8 -8 -10 -5 -11 -5 -10 -5 -13 -3 -10 -3 -15 0 -13 0 -13 0 -12 3 -16 5 -12 5 -13 5 -10 8 -13 8 -8 10 -10 7 -8 13 -5 10 -5 13 -2 13 -3 15 3 16 2 15 3 18 7 18 11 20 -36 21 -10 -23 -11 -23 -5 -23 -5 -21 0 -20 3 -21 5 -18 5 -17 10 -16 10 -12 11 -16 12 -10 16 -10 15 -10 15 -8 16 -5 17 -5 16 -5 18 0 17 -3 16 3 18 2 15 5 15 5 16 8 12 10 13 10 10 13 8 16 8 17 2 18 3 21 0 0 0 0zm-184 0l38 15 0 3 -2 5 0 2 2 3 0 2 3 5 2 3 3 5 3 3 5 2 5 5 5 3 5 2 5 3 5 0 5 3 8 0 5 0 5 0 5 0 5 -3 3 0 5 -3 5 -2 3 -5 2 -3 5 -5 3 -5 2 -8 0 -10 3 -8 0 -12 41 0 0 15 -3 13 -2 13 -3 10 -5 10 -5 10 -8 8 -7 7 -8 8 -10 3 -8 5 -10 2 -10 0 -8 0 -10 0 -10 0 -8 -2 -8 -3 -10 -2 -8 -5 -7 -6 -8 -5 -8 -5 -5 -5 -5 -7 -5 -8 -5 -8 -3 -10 -2 -8 0 -10 2 -10 3 -10 0 0z"/>
   <path fill="#B0CB1F" fill-rule="nonzero" d="M582 717l0 0 33 8 33 10 31 13 28 13 26 15 23 13 23 18 20 15 18 18 18 20 13 18 12 21 13 23 8 20 7 23 5 23 3 23 3 25 0 23 -3 26 -5 25 -5 26 -5 26 -10 25 -8 28 -13 26 -13 25 -15 28 -15 26 -18 28 -18 25 -20 29 -31 -26 18 -26 18 -25 15 -26 15 -25 16 -26 10 -25 13 -26 7 -23 8 -23 8 -25 5 -23 2 -23 3 -21 0 -23 -3 -20 -2 -20 -5 -21 -6 -18 -7 -20 -10 -18 -11 -18 -12 -15 -16 -18 -15 -15 -18 -16 -20 -12 -21 -13 -25 -13 -26 -13 -28 -10 -28 -10 -33 -10 0 0 10 -39 0 0zm-219 -92l35 -5 0 0 0 0 0 0 0 0 3 3 0 0 2 2 3 3 2 3 3 2 3 3 5 2 2 5 5 3 5 2 6 6 5 2 7 5 5 3 8 5 8 2 7 6 8 5 8 2 10 5 10 5 10 3 11 5 12 3 11 5 12 2 13 5 -10 39 -13 -3 -13 -5 -12 -3 -13 -5 -13 -5 -10 -2 -10 -5 -11 -6 -10 -5 -10 -5 -8 -2 -7 -5 -8 -6 -8 -5 -7 -2 -5 -5 -8 -5 -5 -3 -5 -5 -3 -3 -5 -5 -5 -2 -3 -3 -2 -2 -3 -5 -2 0 -3 -3 -2 -3 0 -2 -3 0 0 0 0 -3 36 -7 -38 -11 0 0zm0 0l10 -40 25 35 -35 5zm2 516l0 0 -10 -15 -8 -18 -5 -18 -5 -20 -5 -18 -3 -21 -2 -20 -3 -20 -2 -21 0 -23 0 -20 0 -21 0 -23 2 -20 3 -21 0 -20 2 -20 3 -18 2 -21 3 -18 3 -15 2 -18 5 -15 3 -13 2 -13 3 -10 0 -10 2 -8 3 -7 0 -5 0 -3 3 -3 38 11 0 2 0 3 -3 5 0 5 -2 8 -3 10 -2 10 -3 13 -3 13 -2 15 -3 15 -2 18 -3 18 -2 18 -3 18 -2 20 0 18 -3 20 0 21 -2 20 0 21 0 20 0 21 2 20 3 18 2 20 3 18 2 15 5 18 5 16 8 15 8 13 0 0 -36 20zm368 26l0 0 -5 10 -8 10 -8 10 -10 8 -8 10 -10 8 -10 5 -13 8 -10 5 -13 5 -13 2 -10 5 -13 3 -15 3 -13 0 -12 0 -13 0 -15 0 -13 -3 -13 -3 -15 -5 -13 -5 -13 -5 -13 -8 -12 -7 -13 -8 -13 -10 -10 -10 -13 -13 -10 -13 -10 -13 -8 -15 36 -20 7 12 8 11 8 12 10 8 10 10 10 8 11 8 10 5 10 5 10 5 10 5 13 3 10 2 11 3 12 0 11 0 10 0 10 0 13 -3 10 -2 10 -3 10 -3 8 -5 10 -5 8 -2 8 -8 7 -5 8 -5 8 -8 5 -7 5 -8 5 -8 0 0 36 21 0 0zm-291 -131l0 0 0 -20 5 -18 5 -15 8 -15 10 -16 12 -10 13 -10 13 -8 15 -8 18 -5 16 -2 15 0 18 0 18 0 15 2 18 5 15 6 15 7 16 10 15 8 13 13 13 13 10 15 7 15 8 16 5 17 3 21 0 20 -3 21 -5 23 -10 23 -10 23 -36 -21 10 -20 5 -18 5 -18 3 -15 0 -16 -3 -15 -2 -13 -5 -10 -8 -13 -8 -10 -7 -8 -11 -10 -10 -7 -12 -5 -13 -8 -13 -5 -13 -3 -13 -2 -15 0 -13 0 -12 0 -13 2 -10 3 -13 5 -8 5 -10 8 -8 7 -5 8 -5 10 -5 10 -3 13 0 15 0 0 -40 0 0 0zm181 -5l5 11 0 10 0 10 0 8 -3 10 -5 8 -5 7 -5 8 -5 5 -8 8 -7 5 -8 5 -8 2 -7 5 -10 3 -8 3 -10 0 -8 0 -10 0 -10 0 -8 -3 -10 -3 -8 -5 -8 -5 -7 -7 -8 -8 -8 -10 -2 -10 -5 -11 -3 -12 -2 -13 0 -16 40 0 0 11 3 10 0 8 3 7 5 5 2 5 3 6 5 2 2 3 6 2 2 3 5 0 5 0 5 0 8 0 5 0 5 -3 5 -2 6 0 5 -3 5 -5 5 -3 2 -2 5 -5 3 -3 3 -5 0 -2 2 -3 0 -5 0 -3 0 -2 -2 -5 38 -16 0 0z"/>
   <path fill="#B0CB1F" fill-rule="nonzero" d="M699 243l31 25 0 0 -20 28 -18 28 -18 28 -15 28 -11 26 -10 25 -7 26 -6 25 -5 26 0 23 0 26 3 22 2 21 6 23 7 20 10 21 11 20 12 18 13 20 15 16 18 18 18 15 21 15 23 16 23 12 23 13 25 13 28 10 26 10 30 8 31 8 31 5 -8 41 -33 -6 -31 -7 -31 -10 -30 -11 -28 -10 -28 -13 -26 -12 -25 -16 -23 -15 -23 -18 -21 -18 -18 -18 -17 -20 -16 -20 -15 -23 -13 -23 -10 -23 -8 -26 -7 -23 -3 -25 -3 -28 0 -26 0 -28 6 -28 5 -28 10 -28 10 -28 13 -28 15 -31 18 -28 21 -31 22 -30 0 0 0 0zm131 -215l-28 31 35 -16 0 0 -2 3 0 0 0 3 0 2 0 3 0 5 0 2 -3 5 0 5 0 6 -2 5 0 7 -3 5 -2 8 -3 8 -3 7 -2 8 -3 8 -5 10 -2 8 -5 10 -6 10 -5 10 -5 10 -7 11 -5 10 -8 10 -8 13 -10 10 -8 13 -10 10 -31 -25 8 -11 8 -10 7 -13 8 -10 8 -10 5 -10 8 -8 5 -10 5 -10 2 -8 5 -10 3 -8 5 -8 3 -7 2 -8 3 -5 2 -8 0 -5 3 -5 0 -8 2 -2 0 -5 3 -5 0 -3 0 -5 0 -2 0 -3 0 0 0 -3 0 0 0 0 0 0 36 -15 0 0zm-36 15l0 -43 36 28 -36 15 0 0zm360 422l-41 5 0 0 -3 -16 -5 -15 -5 -18 -7 -18 -8 -15 -8 -18 -10 -18 -10 -18 -13 -17 -10 -18 -13 -18 -15 -15 -13 -18 -13 -16 -15 -18 -13 -15 -15 -15 -13 -13 -15 -15 -13 -13 -13 -13 -12 -10 -11 -13 -12 -7 -11 -11 -7 -7 -8 -8 -8 -5 -5 -5 -2 -3 -3 -2 -2 0 28 -31 0 0 2 3 5 2 5 5 6 5 10 8 7 8 11 10 10 10 13 10 12 11 13 12 15 16 13 12 16 16 12 15 16 18 15 15 13 18 15 18 13 18 15 18 13 18 13 17 10 21 10 18 10 20 8 18 8 20 7 18 3 21 5 18 0 0 0 0zm-296 255l18 -36 0 0 7 3 10 2 8 3 10 2 11 0 10 0 10 0 13 -2 10 0 10 -3 10 -5 11 -2 10 -5 10 -6 10 -7 10 -5 8 -8 10 -8 8 -10 8 -8 7 -10 8 -10 5 -13 5 -10 5 -13 5 -12 3 -13 2 -13 3 -15 0 -16 0 -15 0 -15 41 -5 0 20 0 18 0 18 -3 15 -2 18 -5 15 -5 16 -6 15 -5 13 -7 12 -11 13 -7 13 -10 10 -11 10 -10 11 -13 7 -10 10 -13 8 -12 5 -13 5 -13 5 -13 6 -12 2 -13 3 -13 2 -13 0 -15 0 -13 0 -13 -2 -12 -3 -13 -5 -10 -5 0 0 0 0zm163 -294l-33 26 0 0 -10 -13 -10 -10 -11 -8 -10 -5 -13 -2 -10 -3 -13 0 -10 3 -13 2 -12 5 -13 5 -10 8 -13 10 -10 8 -11 13 -10 10 -7 13 -6 12 -7 13 -5 15 -3 13 0 13 0 15 0 13 5 13 5 15 8 13 10 13 13 12 13 13 18 10 23 13 -18 36 -26 -13 -20 -13 -18 -15 -15 -18 -16 -15 -10 -18 -5 -18 -5 -20 -3 -18 0 -18 0 -20 5 -18 6 -18 7 -16 8 -15 10 -15 13 -15 13 -13 12 -13 16 -10 12 -10 18 -8 16 -5 17 -5 16 -3 18 0 18 3 17 5 16 7 15 13 15 13 13 15 0 0 0 0zm-156 113l39 -11 2 3 3 3 2 5 3 2 2 0 3 3 5 2 5 0 5 3 5 0 8 0 5 0 5 -3 8 0 5 -2 8 -3 5 -2 5 -3 3 -5 5 -3 2 -5 3 -5 2 -2 3 -5 0 -6 2 -7 -2 -5 0 -8 -3 -8 -2 -7 -5 -10 -8 -8 33 -26 8 13 7 13 6 13 5 10 0 13 2 10 -2 13 0 10 -5 10 -6 8 -5 10 -5 8 -7 5 -8 7 -8 5 -10 5 -8 3 -10 3 -7 2 -11 3 -10 0 -8 0 -10 0 -10 -3 -8 -2 -7 -3 -11 -5 -7 -5 -8 -8 -5 -7 -5 -8 -3 -10 0 0z"/>
   <path fill="#B0CB1F" fill-rule="nonzero" d="M1575 243l0 0 23 30 20 31 18 28 16 31 12 28 11 28 7 28 5 28 6 28 0 28 0 26 -3 28 -5 25 -8 26 -10 23 -10 23 -16 23 -15 23 -15 20 -18 20 -20 18 -23 18 -23 18 -26 15 -25 16 -29 15 -30 13 -31 12 -30 11 -34 10 -33 8 -36 7 -7 -41 33 -7 33 -8 31 -10 30 -10 29 -11 28 -12 25 -13 26 -13 23 -15 20 -15 20 -18 18 -18 18 -18 13 -18 15 -20 10 -18 11 -21 7 -23 8 -20 5 -23 3 -23 0 -23 0 -23 -5 -26 -6 -25 -7 -26 -8 -25 -13 -26 -12 -28 -18 -28 -18 -28 -23 -28 0 0 33 -25zm-130 -215l33 15 0 0 0 0 0 0 0 3 0 0 0 3 3 2 0 5 0 3 0 5 2 5 0 2 3 8 0 5 2 5 3 8 2 5 3 8 3 7 2 8 5 8 3 10 5 8 5 10 5 10 5 8 8 10 5 10 8 10 7 13 8 10 10 11 -33 25 -8 -10 -10 -13 -8 -10 -7 -13 -8 -10 -5 -10 -8 -11 -5 -10 -5 -10 -5 -10 -5 -10 -3 -8 -5 -10 -2 -8 -3 -8 -2 -7 -3 -8 -3 -8 -2 -5 -3 -7 0 -5 0 -6 -2 -5 0 -5 0 -2 -3 -5 0 -3 0 -2 0 -3 0 0 0 -3 0 0 33 16 -25 -31 0 0zm0 0l33 -28 0 43 -33 -15 0 0zm-324 437l0 0 2 -18 5 -21 5 -18 8 -20 10 -18 8 -20 13 -18 10 -21 13 -17 12 -18 13 -18 16 -18 12 -18 16 -18 15 -15 13 -18 15 -15 15 -16 13 -12 13 -16 15 -12 13 -11 10 -10 13 -10 10 -10 8 -8 7 -8 8 -5 5 -5 5 -2 3 -3 0 0 25 31 0 0 -2 2 -3 3 -7 5 -5 5 -8 8 -10 7 -11 11 -10 7 -10 13 -13 10 -12 13 -16 13 -13 15 -12 13 -16 15 -12 15 -16 18 -12 16 -16 18 -13 15 -12 18 -13 18 -10 17 -11 18 -10 18 -10 18 -8 15 -5 18 -5 18 -5 15 -2 16 0 0 -41 -5 0 0zm296 255l0 0 -13 5 -13 5 -12 3 -13 2 -13 0 -13 0 -13 0 -12 -2 -16 -3 -12 -2 -13 -6 -13 -5 -13 -5 -12 -5 -11 -8 -12 -10 -11 -7 -10 -11 -10 -10 -10 -10 -10 -13 -8 -13 -8 -12 -7 -13 -6 -15 -5 -16 -2 -15 -5 -18 0 -15 -3 -18 0 -18 3 -20 41 5 0 15 -3 15 3 16 0 15 2 13 5 13 3 12 5 13 5 10 8 13 7 10 5 10 11 8 7 10 8 8 10 8 10 5 11 7 7 6 13 5 10 2 10 5 11 3 10 0 10 2 10 0 10 0 11 0 10 -2 10 -3 10 -2 8 -3 0 0 18 36 0 0zm-164 -294l0 0 13 -15 16 -13 15 -13 15 -7 18 -5 18 -3 15 0 18 3 18 5 15 5 16 8 15 10 15 10 13 13 13 13 10 15 10 15 10 15 5 16 8 18 3 18 2 20 0 18 -2 18 -5 20 -8 18 -10 18 -13 15 -15 18 -18 15 -23 13 -23 13 -18 -36 20 -13 18 -10 16 -13 12 -12 11 -13 7 -13 5 -15 3 -13 2 -13 0 -15 -2 -13 -3 -13 -5 -15 -5 -13 -8 -12 -7 -13 -8 -10 -10 -13 -13 -8 -10 -10 -13 -8 -10 -5 -13 -5 -13 -2 -12 -3 -11 0 -12 3 -11 2 -10 5 -10 8 -10 10 -10 13 0 0 -34 -26 0 0zm156 113l-5 10 -2 8 -8 7 -8 8 -7 5 -8 5 -8 3 -10 2 -8 3 -10 0 -10 0 -8 0 -10 -3 -10 -2 -8 -3 -10 -3 -8 -5 -7 -5 -8 -7 -8 -5 -7 -8 -5 -10 -6 -8 -2 -10 -3 -10 0 -13 0 -10 3 -13 5 -10 5 -13 5 -13 10 -13 34 26 -8 8 -5 10 -3 7 -2 8 -3 8 0 5 0 7 3 6 0 5 2 2 3 5 5 5 3 3 5 5 5 3 5 2 5 3 8 2 5 0 7 3 5 0 6 0 7 0 5 -3 5 0 3 -2 5 -3 3 0 2 -2 3 -5 2 -3 0 -3 41 11 0 0z"/>
   <path fill="#B0CB1F" fill-rule="nonzero" d="M1302 950l0 0 31 30 28 31 25 31 23 30 18 33 15 31 16 33 10 31 8 33 7 31 3 30 0 33 -3 31 -5 31 -5 28 -10 30 -10 29 -16 28 -15 28 -18 25 -20 26 -21 25 -25 23 -26 23 -25 21 -31 20 -31 21 -33 17 -33 16 -36 15 -35 15 -39 13 -13 -41 36 -10 36 -15 33 -13 33 -18 31 -15 28 -18 28 -21 26 -20 23 -20 23 -23 20 -21 18 -25 15 -23 16 -26 12 -23 10 -28 8 -25 8 -26 2 -28 3 -28 0 -28 -3 -28 -5 -28 -7 -28 -11 -28 -12 -31 -16 -28 -18 -31 -20 -28 -23 -31 -26 -28 -30 -30 0 0 28 -28 0 0zm-179 -230l36 10 0 0 0 3 0 0 3 2 0 3 0 2 0 3 2 2 0 6 3 5 2 5 0 5 3 5 2 8 5 5 3 7 3 8 5 8 5 10 5 8 5 7 8 10 5 11 7 10 8 10 8 10 10 10 8 11 10 10 10 13 13 10 10 13 -28 28 -13 -10 -10 -13 -13 -13 -10 -10 -10 -13 -8 -10 -10 -13 -8 -10 -7 -10 -8 -11 -5 -10 -8 -10 -5 -8 -5 -10 -5 -8 -3 -10 -5 -7 -2 -8 -6 -8 -2 -5 -3 -7 0 -6 -2 -5 -3 -5 0 -5 -2 -2 0 -6 0 -2 0 -3 -3 -2 0 0 0 0 36 10 -31 -28zm0 0l31 -31 5 41 -36 -10zm-301 554l0 0 0 -23 3 -23 2 -23 5 -23 8 -23 8 -23 10 -23 10 -25 10 -23 13 -23 13 -23 12 -23 13 -21 13 -23 15 -20 16 -21 12 -20 16 -20 12 -18 13 -18 16 -18 12 -15 11 -13 12 -15 11 -11 7 -12 8 -8 7 -8 6 -7 5 -3 2 -5 0 0 31 28 0 0 -3 3 -5 5 -5 7 -5 8 -10 8 -8 10 -10 13 -10 12 -13 13 -13 15 -13 18 -12 18 -13 18 -15 18 -13 20 -15 21 -13 20 -13 21 -13 23 -13 20 -12 23 -11 20 -12 23 -8 23 -10 21 -8 23 -5 20 -5 21 -3 20 -2 20 0 21 0 0 -41 0 0 0zm375 242l0 0 -12 8 -16 8 -13 5 -15 5 -13 2 -15 3 -15 0 -16 0 -15 0 -15 -3 -16 -2 -15 -3 -15 -5 -15 -5 -16 -8 -15 -7 -13 -8 -13 -7 -15 -11 -13 -12 -10 -13 -13 -13 -10 -13 -10 -15 -8 -15 -7 -18 -8 -16 -8 -17 -5 -21 -2 -20 -3 -21 0 -20 41 0 0 18 2 18 3 17 5 16 5 15 5 15 8 13 8 16 7 12 10 10 8 11 10 10 13 10 10 8 13 10 10 5 13 8 13 5 13 5 12 3 13 5 13 0 13 2 12 0 13 0 13 0 13 -2 10 -3 13 -2 10 -6 10 -5 10 -5 0 0 23 33 0 0zm-232 -306l0 0 13 -20 15 -18 15 -13 18 -13 18 -7 21 -6 17 -2 21 -3 20 3 18 5 21 8 17 7 18 11 18 10 15 13 16 15 13 15 12 18 11 18 10 18 7 20 5 21 3 20 0 23 -3 20 -5 23 -10 21 -10 23 -15 20 -21 21 -20 18 -26 17 -23 -33 23 -18 18 -15 15 -15 13 -18 10 -18 6 -15 5 -18 2 -16 0 -17 -2 -16 -5 -15 -6 -15 -7 -16 -8 -15 -10 -15 -13 -13 -13 -10 -12 -13 -16 -10 -12 -8 -16 -5 -15 -5 -15 -5 -16 0 -15 0 -13 0 -13 5 -12 5 -13 8 -10 10 -13 13 -8 17 0 0 -38 -20 0 0zm191 102l-2 10 -3 11 -5 10 -7 7 -8 8 -8 8 -10 5 -10 2 -10 6 -11 2 -10 0 -10 0 -10 0 -10 0 -13 -2 -10 -3 -11 -5 -10 -3 -8 -7 -10 -5 -7 -8 -8 -10 -8 -8 -5 -10 -2 -13 -3 -13 -2 -12 2 -13 3 -16 2 -12 5 -16 8 -15 38 20 -7 11 -6 12 -2 11 0 10 0 8 0 7 0 8 2 5 3 8 5 5 3 5 5 2 5 5 8 3 5 3 7 2 8 3 8 2 7 0 8 0 8 0 5 0 7 -2 8 -3 5 -2 5 -3 5 -3 3 -2 2 -5 3 -5 3 -3 0 -5 40 5 0 0z"/>
   <path fill="#B0CB1F" fill-rule="nonzero" d="M23 1105l0 44 20 -23 3 56 5 54 8 56 10 51 13 53 15 51 18 49 20 51 23 46 23 46 28 46 28 43 31 44 33 41 33 38 36 38 38 36 39 33 43 31 41 30 43 28 46 26 49 25 46 21 51 20 48 18 51 15 54 11 54 10 53 8 54 5 56 2 0 41 -56 -3 -59 -5 -56 -7 -54 -10 -56 -13 -53 -16 -51 -17 -52 -21 -51 -23 -46 -23 -48 -28 -46 -28 -43 -33 -44 -33 -41 -34 -38 -38 -38 -38 -36 -41 -33 -43 -31 -44 -30 -43 -28 -49 -26 -48 -23 -49 -20 -51 -18 -51 -16 -53 -15 -54 -10 -56 -8 -56 -5 -56 -2 -57 20 -23zm-20 23l0 -23 20 0 -20 23zm674 189l-26 33 0 0 -15 -10 -18 -13 -18 -10 -15 -10 -18 -10 -18 -10 -18 -11 -20 -10 -18 -7 -18 -11 -18 -7 -20 -8 -18 -10 -21 -5 -20 -8 -21 -8 -17 -5 -21 -7 -20 -5 -21 -6 -20 -5 -21 -5 -20 -2 -23 -5 -20 -3 -21 -3 -23 -2 -20 -3 -21 -2 -23 0 -23 0 -20 0 0 -44 23 3 23 0 23 0 20 2 23 3 23 3 21 2 23 3 23 5 20 5 21 2 22 6 21 7 20 5 21 5 23 8 20 8 21 5 17 8 21 10 20 7 21 8 18 10 20 10 18 11 20 10 18 10 18 10 18 11 18 12 18 13 18 10 0 0 0 0zm459 932l0 -41 -20 21 0 -34 -3 -35 -3 -33 -5 -31 -5 -33 -5 -34 -7 -30 -8 -33 -10 -31 -11 -31 -10 -30 -10 -31 -13 -28 -13 -31 -15 -28 -13 -28 -15 -28 -18 -28 -15 -25 -18 -29 -20 -25 -18 -23 -21 -26 -20 -23 -21 -25 -23 -23 -22 -20 -23 -23 -23 -21 -26 -20 -25 -18 -26 -21 26 -33 25 21 26 20 25 21 26 20 23 23 23 23 23 23 23 25 20 26 20 25 21 26 20 26 18 28 18 28 18 28 15 28 15 30 13 29 16 30 12 31 11 30 12 34 10 30 8 33 10 34 5 33 8 33 5 33 5 36 3 33 2 36 0 33 -20 23zm20 -23l0 23 -20 0 20 -23z"/>
   <path fill="#B0CB1F" fill-rule="nonzero" d="M1026 2101l23 26 -18 15 -263 38 -5 -41 263 -38 0 0zm23 26l-2 12 -16 3 18 -15 0 0zm3 -263l38 5 -41 258 -41 -8 44 -255z"/>
   <path fill="#B0CB1F" fill-rule="nonzero" d="M871 1948l22 23 -17 18 -376 53 -5 -41 376 -53 0 0zm22 23l-2 15 -15 3 17 -18zm11 -386l41 5 -52 381 -40 -5 51 -381z"/>
   <path fill="#B0CB1F" fill-rule="nonzero" d="M697 1777l23 23 -18 18 -388 53 -5 -41 388 -53 0 0zm23 23l0 18 -18 0 18 -18zm10 -398l41 5 -51 393 -41 -5 51 -393z"/>
   <path fill="#B0CB1F" fill-rule="nonzero" d="M526 1608l23 23 -18 18 -350 51 -5 -41 350 -51 0 0zm23 23l-3 16 -15 2 18 -18zm8 -357l40 5 -48 352 -41 -5 49 -352z"/>
   <path fill="#B0CB1F" fill-rule="nonzero" d="M375 1460l23 23 -18 18 -275 41 -5 -41 275 -41 0 0zm23 23l-2 16 -16 2 18 -18zm-2 -286l41 5 -39 281 -41 -7 39 -279z"/>
   <path fill="#B0CB1F" fill-rule="nonzero" d="M243 1325l25 23 -18 18 -186 28 -8 -41 187 -28 0 0zm25 23l-3 15 -15 3 18 -18zm-15 -194l41 5 -26 189 -41 -5 26 -189z"/>
   <path fill="#B0CB1F" fill-rule="nonzero" d="M130 1215l23 23 -18 18 -99 15 -8 -41 102 -15 0 0zm23 23l-2 15 -16 3 18 -18zm-28 -107l41 5 -13 102 -41 -5 13 -102z"/>
   <path fill="#B0CB1F" fill-rule="nonzero" d="M2252 1105l20 23 -3 57 -5 56 -7 56 -11 56 -12 54 -18 53 -18 51 -20 51 -23 49 -26 48 -28 49 -28 43 -33 44 -33 43 -36 41 -39 38 -38 38 -41 34 -43 33 -43 33 -46 28 -46 28 -49 23 -51 23 -51 21 -51 17 -54 16 -53 13 -56 10 -57 7 -56 5 -58 3 0 -41 56 -2 53 -5 54 -8 54 -10 53 -11 51 -15 51 -18 49 -20 48 -21 46 -25 46 -26 44 -28 43 -30 41 -31 38 -33 38 -36 36 -38 36 -38 31 -41 30 -44 28 -43 28 -46 23 -46 23 -46 21 -51 18 -49 15 -51 13 -53 10 -51 8 -56 5 -54 2 -56 21 23 0 -44 0 0zm0 0l20 0 0 23 -20 -23zm-654 212l0 0 18 -10 18 -13 18 -12 18 -11 17 -10 21 -10 18 -10 18 -11 20 -10 18 -10 20 -8 21 -7 20 -10 21 -8 20 -5 20 -8 21 -8 20 -5 21 -5 20 -7 23 -6 20 -2 23 -5 21 -5 23 -3 20 -2 23 -3 23 -3 23 -2 21 0 23 0 23 -3 0 44 -21 0 -23 0 -20 0 -23 2 -21 3 -23 2 -20 3 -20 3 -21 5 -23 2 -20 5 -21 5 -20 6 -21 5 -20 7 -18 5 -20 8 -21 8 -18 5 -20 10 -18 8 -20 7 -18 11 -18 7 -18 10 -20 11 -18 10 -15 10 -18 10 -18 10 -18 13 -15 10 0 0 -26 -33 0 0zm-459 932l-21 -23 0 -33 3 -36 5 -33 2 -36 5 -33 8 -33 8 -33 7 -34 8 -33 10 -30 13 -34 10 -30 13 -31 15 -30 13 -29 15 -30 18 -28 16 -28 17 -28 18 -28 21 -26 20 -26 21 -25 20 -26 23 -25 23 -23 23 -23 23 -23 25 -20 26 -21 26 -20 25 -21 26 33 -26 21 -25 18 -26 20 -23 21 -23 23 -23 20 -20 23 -23 25 -21 23 -20 26 -18 23 -18 25 -18 29 -18 25 -15 28 -15 28 -16 28 -15 28 -13 31 -12 28 -11 31 -10 30 -10 31 -10 31 -8 33 -5 30 -8 34 -5 33 -2 31 -5 33 -3 35 0 34 -20 -21 0 41 0 0zm0 0l-21 0 0 -23 21 23z"/>
   <path fill="#B0CB1F" fill-rule="nonzero" d="M1248 2101l266 38 -8 41 -263 -38 -18 -15 23 -26 0 0zm-5 41l-15 -3 -3 -12 18 15 0 0zm-18 -278l41 255 -41 8 -40 -258 40 -5z"/>
   <path fill="#B0CB1F" fill-rule="nonzero" d="M1404 1948l378 53 -8 41 -375 -53 -18 -18 23 -23 0 0zm-5 41l-15 -3 -3 -15 18 18zm-26 -404l49 381 -41 5 -48 -381 40 -5z"/>
   <path fill="#B0CB1F" fill-rule="nonzero" d="M1578 1777l388 53 -5 41 -388 -53 -18 -18 23 -23 0 0zm-5 41l-16 0 -2 -18 18 18zm-29 -416l52 393 -41 5 -51 -393 40 -5z"/>
   <path fill="#B0CB1F" fill-rule="nonzero" d="M1749 1608l349 51 -5 41 -349 -51 -18 -18 23 -23 0 0zm-5 41l-16 -2 -2 -16 18 18zm-26 -375l49 352 -41 5 -49 -352 41 -5z"/>
   <path fill="#B0CB1F" fill-rule="nonzero" d="M1899 1460l276 41 -5 41 -276 -41 -18 -18 23 -23 0 0zm-5 41l-15 -2 -3 -16 18 18zm-15 -304l38 279 -41 7 -38 -281 41 -5z"/>
   <path fill="#B0CB1F" fill-rule="nonzero" d="M2032 1325l186 28 -5 41 -189 -28 -15 -18 23 -23 0 0zm-8 41l-15 -3 0 -15 15 18zm-2 -212l28 189 -41 5 -25 -189 38 -5z"/>
   <path fill="#B0CB1F" fill-rule="nonzero" d="M2147 1215l99 15 -7 41 -100 -15 -18 -18 26 -23 0 0zm-8 41l-15 -3 -3 -15 18 18zm10 -125l13 102 -41 5 -12 -102 40 -5z"/>
  </g>
 </g>
</svg>
