<?xml version="1.0" encoding="UTF-8"?>
<!DOCTYPE svg PUBLIC "-//W3C//DTD SVG 1.1//EN" "http://www.w3.org/Graphics/SVG/1.1/DTD/svg11.dtd">
<!-- Creator: CorelDRAW X8 -->
<svg xmlns="http://www.w3.org/2000/svg" xml:space="preserve" width="2808px" height="1045px" version="1.1" shape-rendering="geometricPrecision" text-rendering="geometricPrecision" image-rendering="optimizeQuality" fill-rule="evenodd" clip-rule="evenodd"
viewBox="0 0 2862 1065"
 xmlns:xlink="http://www.w3.org/1999/xlink">
 <g id="Layer_x0020_1">
  <metadata id="CorelCorpID_0Corel-Layer"/>
  <g id="_2086626351536">
   <polygon fill="#5B5B5B" fill-rule="nonzero" points="1081,839 1122,839 1244,528 1205,528 1102,794 1000,528 961,528 "/>
   <path fill="#5B5B5B" fill-rule="nonzero" d="M1337 686c-1,-17 1,-34 4,-49 3,-16 9,-29 17,-41 7,-12 18,-21 32,-28 13,-7 30,-10 50,-9l0 -39c-17,0 -32,2 -45,6 -13,4 -24,11 -33,21 -10,10 -18,23 -24,39l-1 0 0 -58 -37 0 0 311 37 0 0 -153z"/>
   <polygon fill="#5B5B5B" fill-rule="nonzero" points="1543,839 1543,528 1506,528 1506,839 "/>
   <polygon fill="#5B5B5B" fill-rule="nonzero" points="1670,839 1670,721 1729,665 1847,839 1888,839 1756,640 1874,528 1824,528 1670,676 1670,407 1633,407 1633,839 "/>
   <path fill="#5B5B5B" fill-rule="nonzero" d="M1924 742c1,14 4,28 9,41 6,13 14,24 24,33 10,10 23,17 37,23 14,5 31,8 50,8 18,0 35,-2 51,-6 16,-4 29,-9 41,-17 11,-7 20,-17 26,-28 7,-12 10,-25 10,-39 0,-15 -3,-28 -9,-38 -5,-10 -13,-18 -23,-25 -9,-6 -20,-11 -32,-15 -12,-4 -24,-8 -37,-11 -13,-3 -25,-6 -37,-9 -12,-3 -23,-7 -32,-11 -10,-4 -18,-10 -23,-17 -6,-6 -9,-15 -9,-26 0,-10 3,-20 8,-28 6,-8 14,-14 24,-18 11,-5 24,-7 39,-7 15,0 29,2 41,6 12,5 22,12 29,21 8,10 13,23 15,38l37 0c-3,-23 -10,-42 -20,-56 -11,-15 -24,-25 -41,-32 -18,-6 -37,-9 -60,-9 -24,0 -44,4 -60,11 -16,8 -29,18 -38,31 -8,14 -13,29 -13,46 0,16 3,28 9,38 5,10 13,18 23,25 9,6 20,11 32,14 12,4 24,7 37,10 13,2 25,5 37,8 12,2 23,6 32,10 10,4 18,10 23,17 6,7 9,16 9,27 0,10 -3,20 -8,28 -6,9 -15,16 -26,21 -12,6 -26,9 -44,9 -18,0 -33,-3 -46,-7 -13,-5 -23,-13 -31,-24 -8,-10 -13,-25 -17,-42l-37 0z"/>
   <path fill="#5B5B5B" fill-rule="nonzero" d="M2280 839l0 -168c0,-10 0,-20 1,-30 1,-9 3,-19 7,-28 4,-11 10,-21 18,-30 8,-9 18,-17 29,-22 12,-6 25,-9 40,-9 20,0 36,3 48,9 12,7 20,16 26,28 5,13 8,28 8,47l0 203 36 0 0 -204c1,-8 0,-17 0,-25 -1,-8 -2,-16 -5,-23 -2,-8 -5,-16 -10,-23 -8,-11 -17,-19 -27,-26 -10,-6 -21,-11 -32,-14 -12,-3 -25,-4 -37,-4 -15,0 -28,2 -40,6 -11,5 -22,11 -32,18 -10,8 -20,17 -30,27l0 -164 -36 0 0 432 36 0z"/>
   <path fill="#5B5B5B" fill-rule="nonzero" d="M2788 724c0,16 -4,29 -10,41 -7,11 -15,21 -26,28 -11,7 -23,13 -37,16 -14,4 -28,6 -42,6 -9,0 -17,-1 -25,-4 -9,-2 -16,-5 -22,-10 -7,-5 -12,-10 -16,-17 -3,-7 -5,-16 -5,-25 0,-14 3,-26 10,-35 8,-9 18,-16 31,-21 13,-5 29,-9 47,-10 11,-1 22,-2 32,-3 11,-1 21,-3 31,-5 11,-2 21,-5 32,-9l0 48zm-112 -60c-37,5 -65,15 -83,31 -18,16 -27,37 -27,63 0,15 3,28 8,39 6,11 14,21 24,28 9,7 21,13 33,17 13,3 26,5 40,5 23,0 44,-4 64,-13 20,-9 38,-22 53,-38 0,7 1,14 3,20 1,7 4,12 8,17 4,4 10,7 18,9 3,0 6,1 8,1 3,0 6,0 9,0 3,0 7,0 11,-1 3,0 7,-1 10,-2 3,-1 6,-2 7,-3l0 -28c-10,4 -18,6 -23,5 -6,0 -10,-3 -12,-7 -2,-5 -3,-12 -3,-22l0 -169c0,-18 -3,-33 -9,-45 -6,-13 -14,-23 -24,-30 -10,-8 -23,-13 -36,-16 -14,-4 -29,-5 -45,-5 -17,0 -34,2 -49,5 -15,4 -28,10 -40,18 -11,9 -21,19 -28,32 -7,13 -11,29 -13,47l37 0c3,-18 8,-32 16,-42 8,-10 19,-17 32,-22 12,-4 27,-6 44,-6 19,0 34,3 46,8 11,6 20,13 25,22 5,10 8,21 8,33 0,4 -1,8 -1,12 -1,4 -2,8 -4,12 -2,4 -5,7 -9,8 -4,2 -9,4 -15,5 -5,2 -11,3 -17,4 -6,1 -11,1 -16,2l-50 6z"/>
   <polygon fill="#5B5B5B" points="0,896 2860,896 2860,922 0,922 "/>
   <path fill="#5B5B5B" fill-rule="nonzero" d="M967 1013c0,-1 0,-2 1,-3 0,-1 1,-2 1,-3 1,-1 2,-2 4,-2 1,-1 3,-1 5,-1 4,0 7,1 9,2 1,1 2,3 2,6 0,1 0,2 0,3 -1,1 -1,2 -2,2 -1,0 -1,0 -2,0l-13 2c-3,0 -5,1 -7,2 -2,1 -3,2 -4,3 -1,1 -2,2 -2,4 -1,1 -1,2 -1,3 -1,1 -1,2 -1,3 0,3 1,5 2,7 1,2 3,4 6,5 2,1 4,2 7,2 3,0 5,0 7,-1 1,0 3,-1 4,-2 2,-1 3,-1 4,-2 1,-1 2,-2 3,-3 0,1 0,2 0,3 0,1 1,1 1,2 1,1 2,1 3,2 1,0 2,0 4,0 1,0 2,0 3,0 0,0 1,0 2,0l0 -6c-1,0 -1,0 -2,0 0,0 -1,0 -1,0 -1,0 -2,0 -2,-1 -1,0 -1,-1 -1,-2l0 -27c0,-2 0,-4 -1,-6 0,-1 -1,-2 -3,-3 -1,-1 -2,-2 -3,-3 -2,0 -3,-1 -4,-1 -2,0 -3,-1 -4,-1 -1,0 -2,0 -3,0 -3,0 -7,1 -10,2 -3,1 -5,3 -7,5 -1,2 -2,5 -2,9l7 0zm22 17c0,2 0,3 -1,4 -1,2 -2,3 -3,4 -2,1 -3,2 -5,2 -2,1 -4,1 -6,1 -3,0 -5,-1 -6,-2 -2,-1 -2,-4 -2,-6 0,-2 0,-3 1,-4 0,-1 1,-2 2,-2 1,-1 2,-1 4,-1 1,-1 2,-1 3,-1 2,0 4,-1 6,-1 2,0 3,0 4,-1 1,0 1,0 2,0 0,0 1,-1 1,-1l0 8zm179 -5c0,-2 0,-3 1,-5 0,-2 0,-4 0,-6 1,-2 2,-3 3,-5 1,-1 2,-2 3,-3 2,-1 4,-2 6,-2 3,0 5,1 6,2 2,1 3,2 4,3 1,1 2,3 2,4 1,2 1,4 1,5 0,2 0,3 0,4 0,3 0,6 0,8 -1,2 -2,4 -3,6 -1,1 -2,3 -4,4 -2,0 -3,1 -6,1 -1,0 -2,0 -3,-1 -1,0 -2,0 -3,-1 -2,-1 -3,-2 -4,-3 -1,-1 -1,-3 -2,-5 0,-1 -1,-4 -1,-6zm-7 40l8 0 0 -24 0 0c1,2 1,3 3,4 1,1 2,1 4,2 2,1 3,1 6,1 2,0 5,-1 7,-1 2,-1 4,-2 5,-3 2,-2 3,-3 4,-5 1,-2 2,-4 3,-6 0,-2 1,-4 1,-6 1,-2 1,-4 1,-6 0,-3 -1,-6 -2,-9 -1,-3 -2,-6 -4,-8 -1,-2 -3,-4 -6,-5 -2,-1 -5,-2 -8,-2 -3,0 -4,1 -6,1 -2,1 -3,1 -4,2 -1,1 -2,2 -3,3 -1,1 -1,2 -2,2l0 0 0 -6 -7 0 0 66zm123 -46c0,-2 0,-4 1,-5 0,-2 1,-3 2,-4 1,-2 2,-2 4,-3 1,-1 3,-1 5,-1l3 0 0 -9c0,0 -1,0 -1,0 0,0 -1,0 -1,0 -2,0 -4,1 -6,1 -1,1 -3,2 -4,4 -1,1 -2,3 -4,5l0 0 0 -8 -7 0 0 48 8 0 0 -28zm116 12c0,1 0,2 -1,3 0,2 -1,3 -2,4 -1,1 -3,1 -4,2 -2,1 -3,1 -5,1 -3,0 -6,-1 -8,-2 -2,-1 -4,-3 -5,-5 -1,-3 -1,-5 -1,-9l35 0c0,-4 -1,-8 -1,-11 -1,-4 -3,-7 -4,-9 -2,-3 -4,-4 -7,-6 -2,-1 -5,-2 -9,-2 -4,0 -7,1 -10,2 -3,2 -5,4 -7,6 -2,2 -3,5 -4,8 -1,4 -2,7 -2,11 0,3 1,7 2,9 1,3 2,6 4,8 2,2 4,4 7,5 2,1 5,2 9,2 2,0 4,0 6,-1 2,0 3,0 4,-1 1,0 2,-1 3,-1 1,-1 3,-3 4,-4 1,-1 1,-2 2,-4 1,-1 1,-2 2,-3 0,-1 0,-2 0,-3l-8 0zm-26 -12c0,-2 0,-4 1,-6 1,-1 2,-3 3,-4 1,-2 2,-3 4,-3 2,-1 3,-2 5,-2 3,0 5,1 6,2 2,0 3,1 4,3 1,1 2,3 3,4 0,2 0,4 1,6l-27 0zm142 -7c0,0 0,-1 0,-2 0,-1 -1,-2 -1,-3 0,-1 -1,-2 -2,-3 -1,-1 -2,-2 -3,-3 -1,-1 -3,-2 -5,-3 -2,0 -5,-1 -7,-1 -3,0 -5,1 -7,1 -2,1 -4,2 -6,3 -2,1 -3,3 -4,5 -1,2 -2,4 -2,7 0,2 1,4 2,5 1,2 2,3 4,4 1,1 3,2 6,2l9 2c2,1 4,2 5,2 2,1 3,1 3,2 1,1 1,2 1,3 0,2 0,3 0,4 -1,1 -2,2 -3,2 -1,1 -2,1 -3,1 -2,1 -3,1 -5,1 -2,0 -5,0 -6,-1 -2,-1 -3,-2 -4,-3 -1,-1 -2,-2 -2,-3 0,-1 0,-2 0,-3l-8 0c0,1 0,3 0,4 1,2 1,3 2,5 1,1 2,2 3,4 2,1 4,2 6,3 3,0 6,1 10,1 2,0 5,0 7,-1 2,-1 4,-2 6,-3 2,-2 3,-3 4,-5 1,-2 1,-4 1,-7 1,-2 0,-4 -1,-6 -1,-1 -2,-3 -4,-4 -2,-1 -5,-2 -8,-3l-8 -2c-2,0 -4,-1 -5,-1 -1,-1 -2,-1 -3,-2 0,-1 -1,-2 -1,-3 0,-1 1,-2 1,-3 0,-1 1,-1 2,-2 1,-1 1,-1 2,-1 1,0 2,-1 3,-1 1,0 1,0 2,0 2,0 4,0 6,1 1,1 2,1 3,2 1,1 1,2 2,3 0,1 0,1 0,2l8 0zm106 19c0,1 -1,2 -1,3 -1,2 -2,3 -3,4 -1,1 -2,1 -3,2 -2,1 -4,1 -6,1 -3,0 -5,-1 -7,-2 -2,-1 -4,-3 -5,-5 -1,-3 -2,-5 -2,-9l35 0c0,-4 0,-8 -1,-11 -1,-4 -2,-7 -4,-9 -1,-3 -3,-4 -6,-6 -3,-1 -6,-2 -9,-2 -4,0 -8,1 -10,2 -3,2 -6,4 -8,6 -1,2 -3,5 -4,8 -1,4 -1,7 -1,11 0,3 0,7 1,9 1,3 3,6 5,8 1,2 4,4 6,5 3,1 6,2 9,2 3,0 5,0 7,-1 1,0 3,0 4,-1 1,0 2,-1 2,-1 2,-1 3,-3 4,-4 1,-1 2,-2 3,-4 0,-1 1,-2 1,-3 1,-1 1,-2 1,-3l-8 0zm-27 -12c1,-2 1,-4 2,-6 0,-1 1,-3 2,-4 2,-2 3,-3 5,-3 1,-1 3,-2 5,-2 2,0 4,1 6,2 2,0 3,1 4,3 1,1 2,3 2,4 1,2 1,4 1,6l-27 0zm147 -5c0,-3 -1,-5 -1,-7 -1,-2 -2,-4 -3,-5 -1,-1 -3,-2 -4,-3 -2,-1 -3,-1 -5,-1 -1,-1 -3,-1 -4,-1 -2,0 -4,1 -6,1 -1,1 -3,1 -4,2 -1,1 -2,2 -3,3 -1,1 -1,2 -2,2l0 0 0 -6 -7 0 0 48 8 0 0 -27c0,-2 0,-4 0,-6 1,-2 2,-4 3,-5 1,-1 2,-2 3,-3 1,0 2,-1 3,-1 1,0 2,-1 3,-1 3,0 5,1 6,2 2,1 3,2 4,4 0,2 1,4 1,7l0 30 8 0 0 -33zm92 -9l0 -6 -8 0 0 -14 -8 0 0 14 -7 0 0 6 7 0 0 32c0,1 0,3 0,4 0,1 1,2 2,3 0,1 1,2 3,2 1,1 2,1 4,1 1,0 2,0 3,0 1,0 2,0 4,0l0 -7 -3 0c-1,0 -1,0 -2,0 0,0 -1,0 -1,0 -1,0 -1,-1 -2,-1 0,-1 0,-2 0,-3l0 -31 8 0zm77 8c0,-1 0,-2 1,-3 0,-1 0,-2 1,-3 1,-1 2,-2 3,-2 2,-1 4,-1 6,-1 4,0 7,1 8,2 2,1 3,3 3,6 0,1 0,2 0,3 -1,1 -1,2 -2,2 -1,0 -1,0 -2,0l-13 2c-3,0 -5,1 -7,2 -2,1 -3,2 -4,3 -1,1 -2,2 -3,4 0,1 0,2 -1,3 0,1 0,2 0,3 0,3 1,5 2,7 1,2 3,4 5,5 3,1 5,2 8,2 3,0 5,0 6,-1 2,0 4,-1 5,-2 2,-1 3,-1 4,-2 1,-1 2,-2 3,-3 0,1 0,2 0,3 0,1 1,1 1,2 1,1 2,1 3,2 1,0 2,0 4,0 1,0 2,0 2,0 1,0 2,0 2,0l0 -6c0,0 0,0 -1,0 0,0 -1,0 -1,0 -1,0 -2,0 -2,-1 -1,0 -1,-1 -1,-2l0 -27c0,-2 0,-4 -1,-6 -1,-1 -2,-2 -3,-3 -1,-1 -2,-2 -3,-3 -2,0 -3,-1 -4,-1 -2,0 -3,-1 -4,-1 -1,0 -2,0 -3,0 -4,0 -7,1 -10,2 -3,1 -5,3 -7,5 -1,2 -2,5 -2,9l7 0zm22 17c0,2 0,3 -1,4 -1,2 -2,3 -4,4 -1,1 -3,2 -4,2 -2,1 -4,1 -6,1 -3,0 -5,-1 -6,-2 -2,-1 -3,-4 -2,-6 0,-2 0,-3 1,-4 0,-1 1,-2 2,-2 1,-1 2,-1 3,-1 2,-1 3,-1 4,-1 2,0 4,-1 6,-1 1,0 3,0 4,-1 1,0 1,0 2,0 0,0 1,-1 1,-1l0 8zm102 -25l0 -6 -8 0 0 -14 -8 0 0 14 -6 0 0 6 6 0 0 32c0,1 0,3 0,4 1,1 1,2 2,3 1,1 2,2 3,2 1,1 3,1 5,1 0,0 1,0 2,0 1,0 2,0 4,0l0 -7 -3 0c0,0 -1,0 -1,0 -1,0 -2,0 -2,0 -1,0 -1,-1 -1,-1 -1,-1 -1,-2 -1,-3l0 -31 8 0zm78 -6l-8 0 0 48 8 0 0 -48zm0 -9l0 -9 -8 0 0 9 8 0zm72 33c0,2 0,4 1,7 1,2 1,5 3,7 1,2 2,4 4,5 2,2 4,3 6,4 3,1 5,2 8,2 3,0 6,-1 9,-2 2,-1 4,-2 6,-4 2,-1 3,-3 4,-5 1,-2 2,-5 3,-7 0,-3 1,-5 1,-7 0,-3 -1,-5 -1,-8 -1,-2 -2,-5 -3,-7 -1,-2 -2,-4 -4,-5 -2,-2 -4,-3 -6,-4 -3,-1 -6,-2 -9,-2 -3,0 -5,1 -8,2 -2,1 -4,2 -6,4 -2,1 -3,3 -4,5 -2,2 -2,5 -3,7 -1,3 -1,5 -1,8zm8 0c0,-2 1,-3 1,-5 0,-1 0,-3 1,-5 1,-1 1,-3 2,-4 2,-2 3,-3 5,-4 1,0 3,-1 5,-1 3,0 5,1 6,1 2,1 3,2 4,4 1,1 2,3 3,4 0,2 1,4 1,5 0,2 0,3 0,5 0,1 0,2 0,4 0,1 -1,3 -1,5 -1,1 -2,3 -3,4 -1,2 -2,3 -4,4 -1,0 -3,1 -6,1 -2,0 -4,-1 -5,-1 -2,-1 -3,-2 -5,-4 -1,-1 -1,-3 -2,-4 -1,-2 -1,-4 -1,-5 0,-2 -1,-3 -1,-4zm147 -9c0,-3 0,-5 -1,-7 0,-2 -1,-4 -2,-5 -2,-1 -3,-2 -4,-3 -2,-1 -3,-1 -5,-1 -1,-1 -3,-1 -4,-1 -3,0 -4,1 -6,1 -2,1 -3,1 -4,2 -1,1 -2,2 -3,3 -1,1 -2,2 -2,2l0 0 0 -6 -8 0 0 48 8 0 0 -27c0,-2 1,-4 1,-6 1,-2 2,-4 2,-5 1,-1 2,-2 4,-3 1,0 2,-1 3,-1 1,0 2,-1 3,-1 3,0 5,1 6,2 2,1 3,2 3,4 1,2 1,4 1,7l0 30 8 0 0 -33zm170 11c0,-2 0,-3 0,-5 0,-2 0,-4 1,-6 0,-2 1,-3 2,-5 1,-1 2,-2 4,-3 1,-1 3,-2 6,-2 2,0 4,1 6,2 1,1 3,2 4,3 0,1 1,3 2,4 0,2 0,4 0,5 1,2 1,3 1,4 0,3 -1,6 -1,8 -1,2 -1,4 -3,6 -1,1 -2,3 -4,4 -1,0 -3,1 -5,1 -1,0 -2,0 -4,-1 -1,0 -2,0 -3,-1 -1,-1 -2,-2 -3,-3 -1,-1 -2,-3 -3,-5 0,-1 0,-4 0,-6zm-8 40l8 0 0 -24 0 0c1,2 2,3 3,4 1,1 3,1 4,2 2,1 4,1 6,1 3,0 5,-1 7,-1 2,-1 4,-2 6,-3 1,-2 2,-3 4,-5 1,-2 1,-4 2,-6 1,-2 1,-4 2,-6 0,-2 0,-4 0,-6 0,-3 0,-6 -1,-9 -1,-3 -3,-6 -4,-8 -2,-2 -4,-4 -7,-5 -2,-1 -5,-2 -8,-2 -2,0 -4,1 -6,1 -1,1 -3,1 -4,2 -1,1 -2,2 -3,3 0,1 -1,2 -1,2l-1 0 0 -6 -7 0 0 66zm111 -42c0,2 0,4 1,7 1,2 1,5 3,7 1,2 2,4 4,5 2,2 4,3 6,4 3,1 5,2 8,2 3,0 6,-1 9,-2 2,-1 4,-2 6,-4 2,-1 3,-3 4,-5 1,-2 2,-5 3,-7 0,-3 1,-5 1,-7 0,-3 -1,-5 -1,-8 -1,-2 -2,-5 -3,-7 -1,-2 -2,-4 -4,-5 -2,-2 -4,-3 -6,-4 -3,-1 -6,-2 -9,-2 -3,0 -5,1 -8,2 -2,1 -4,2 -6,4 -2,1 -3,3 -4,5 -2,2 -2,5 -3,7 -1,3 -1,5 -1,8zm8 0c0,-2 1,-3 1,-5 0,-1 0,-3 1,-5 1,-1 1,-3 3,-4 1,-2 2,-3 4,-4 1,0 3,-1 5,-1 3,0 5,1 6,1 2,1 3,2 4,4 1,1 2,3 3,4 0,2 1,4 1,5 0,2 0,3 0,5 0,1 0,2 0,4 0,1 -1,3 -1,5 -1,1 -2,3 -3,4 -1,2 -2,3 -4,4 -1,0 -3,1 -6,1 -2,0 -4,-1 -5,-1 -2,-1 -3,-2 -4,-4 -2,-1 -2,-3 -3,-4 -1,-2 -1,-4 -1,-5 0,-2 -1,-3 -1,-4zm117 -4c0,-2 1,-4 1,-5 1,-2 2,-3 3,-4 1,-2 2,-2 4,-3 1,-1 3,-1 5,-1l3 0 0 -9c-1,0 -1,0 -1,0 0,0 -1,0 -1,0 -2,0 -4,1 -6,1 -1,1 -3,2 -4,4 -2,1 -3,3 -4,5l0 0 0 -8 -8 0 0 48 8 0 0 -28zm105 -14l0 -6 -7 0 0 -14 -8 0 0 14 -7 0 0 6 7 0 0 32c0,1 0,3 0,4 0,1 1,2 2,3 0,1 1,2 3,2 1,1 2,1 4,1 1,0 2,0 3,0 1,0 2,0 3,0l0 -7 -2 0c-1,0 -1,0 -2,0 0,0 -1,0 -1,0 -1,0 -1,-1 -2,-1 0,-1 0,-2 0,-3l0 -31 7 0z"/>
   <g>
    <g>
     <path fill="#B0CB1F" fill-rule="nonzero" d="M666 276l4 15 0 0 -12 4 -12 5 -11 4 -10 5 -9 5 -9 5 -7 6 -7 6 -7 6 -5 6 -5 7 -4 6 -4 7 -3 7 -2 8 -1 7 -1 8 -1 8 0 8 1 8 2 9 2 8 2 9 4 9 3 10 5 9 5 10 5 9 7 10 6 10 8 10 7 10 -12 10 -8 -11 -8 -10 -7 -10 -6 -10 -6 -11 -6 -10 -4 -10 -5 -10 -3 -10 -3 -9 -2 -10 -2 -10 -1 -9 0 -9 0 -10 2 -9 1 -9 3 -8 4 -9 4 -8 5 -8 5 -7 7 -7 7 -7 8 -7 8 -6 10 -6 10 -6 11 -5 11 -5 13 -4 13 -4 0 0zm86 -38l-15 5 14 2 0 1 0 0 -1 0 0 1 -1 1 0 1 -1 1 -1 1 -2 1 -1 1 -1 2 -2 1 -2 2 -2 1 -2 2 -2 2 -3 1 -2 2 -3 2 -3 2 -3 2 -4 2 -3 1 -4 2 -4 2 -4 2 -5 2 -4 2 -5 1 -5 2 -5 2 -6 1 -4 -15 5 -2 5 -1 5 -2 4 -1 4 -2 4 -2 4 -1 4 -2 3 -2 3 -2 4 -1 2 -2 3 -2 3 -1 2 -2 2 -2 2 -1 2 -1 2 -2 1 -1 2 -1 1 -2 1 -1 1 -1 1 0 1 -1 0 -1 1 0 0 -1 0 0 0 0 0 0 14 2zm-14 -2l10 -14 4 16 -14 -2zm18 206l-14 -8 0 0 3 -6 2 -5 2 -7 2 -6 1 -7 1 -7 1 -8 1 -7 0 -8 0 -8 0 -8 0 -8 -1 -8 -1 -8 0 -8 -1 -8 -1 -7 -2 -8 -1 -7 -1 -7 -1 -6 -1 -6 -2 -6 -1 -5 -1 -5 -1 -5 -1 -3 -1 -3 0 -3 -1 -2 0 -1 0 0 15 -5 1 1 0 1 0 2 1 3 1 3 1 4 1 4 1 5 1 6 1 5 2 7 1 6 1 7 1 8 2 7 1 8 1 8 0 8 1 9 1 8 0 8 0 9 0 8 0 9 -1 8 -1 8 -1 8 -1 7 -2 8 -3 7 -2 7 -4 7 0 0zm-145 13l14 -8 0 0 2 3 2 3 3 3 2 2 3 3 3 2 3 2 4 2 4 2 3 1 4 1 4 1 4 1 5 1 4 0 4 0 5 0 4 -1 4 -1 5 -1 4 -1 4 -2 4 -2 5 -2 4 -3 4 -2 3 -4 4 -3 4 -4 3 -5 3 -4 3 -5 14 8 -3 5 -4 6 -4 5 -4 5 -5 4 -4 4 -5 4 -5 3 -5 3 -5 2 -6 2 -5 2 -5 1 -6 1 -5 1 -5 0 -6 0 -5 0 -5 -1 -5 -1 -5 -1 -5 -2 -5 -2 -4 -2 -5 -2 -4 -3 -4 -3 -4 -3 -3 -3 -3 -4 -3 -4 -3 -4 0 0zm114 -54l-16 0 0 0 -1 -5 -1 -5 -1 -5 -3 -4 -2 -3 -3 -3 -4 -2 -4 -2 -4 -2 -5 -1 -4 -1 -6 0 -5 0 -5 0 -5 1 -6 2 -5 2 -5 2 -4 3 -5 3 -3 4 -4 3 -3 5 -2 4 -2 5 -1 5 -1 6 1 6 1 6 1 7 3 7 4 8 -14 8 -4 -9 -4 -9 -2 -9 -2 -8 0 -8 1 -8 2 -7 2 -7 4 -6 4 -5 4 -6 5 -4 6 -4 6 -4 6 -3 6 -2 7 -2 6 -2 7 0 7 -1 6 1 7 1 6 2 6 2 6 3 5 4 5 4 4 5 3 6 3 7 1 7 1 8 0 0zm-72 0l15 6 0 1 -1 2 0 1 1 1 0 1 1 2 1 1 1 2 1 1 2 1 2 2 2 1 2 1 2 1 2 0 2 1 3 0 2 0 2 0 2 0 2 -1 1 0 2 -1 2 -1 1 -2 1 -1 2 -2 1 -2 1 -3 0 -4 1 -3 0 -5 16 0 0 6 -1 5 -1 5 -1 4 -2 4 -2 4 -3 3 -3 3 -3 3 -4 1 -3 2 -4 1 -4 0 -3 0 -4 0 -4 0 -3 -1 -3 -1 -4 -1 -3 -2 -3 -2 -3 -2 -3 -2 -2 -2 -2 -3 -2 -3 -2 -3 -1 -4 -1 -3 0 -4 1 -4 1 -4z"/>
    </g>
    <g>
     <path fill="#B0CB1F" fill-rule="nonzero" d="M228 281l0 0 13 3 13 4 12 5 11 5 10 6 9 5 9 7 8 6 7 7 7 8 5 7 5 8 5 9 3 8 3 9 2 9 1 9 1 10 0 9 -1 10 -2 10 -2 10 -2 10 -4 10 -3 11 -5 10 -5 10 -6 11 -6 10 -7 11 -7 10 -8 11 -12 -10 7 -10 7 -10 6 -10 6 -10 6 -10 4 -10 5 -10 3 -9 3 -9 3 -10 2 -9 1 -9 1 -8 0 -9 -1 -8 -1 -8 -2 -8 -2 -7 -3 -8 -4 -7 -4 -7 -5 -6 -6 -7 -6 -6 -7 -6 -8 -5 -8 -5 -10 -5 -10 -5 -11 -4 -11 -4 -13 -4 0 0 4 -15zm-86 -36l14 -2 0 0 0 0 0 0 0 0 1 1 0 0 1 1 1 1 1 1 1 1 1 1 2 1 1 2 2 1 2 1 2 2 2 1 3 2 2 1 3 2 3 1 3 2 3 2 3 1 4 2 4 2 4 1 4 2 5 1 4 2 5 1 5 2 -4 15 -5 -1 -5 -2 -5 -1 -5 -2 -5 -2 -4 -1 -4 -2 -4 -2 -4 -2 -4 -2 -3 -1 -3 -2 -3 -2 -3 -2 -3 -1 -2 -2 -3 -2 -2 -1 -2 -2 -1 -1 -2 -2 -2 -1 -1 -1 -1 -1 -1 -2 -1 0 -1 -1 -1 -1 0 -1 -1 0 0 0 0 -1 14 -3 -15 -4zm0 0l4 -16 10 14 -14 2zm1 202l0 0 -4 -6 -3 -7 -2 -7 -2 -8 -2 -7 -1 -8 -1 -8 -1 -8 -1 -8 0 -9 0 -8 0 -8 0 -9 1 -8 1 -8 0 -8 1 -8 1 -7 1 -8 1 -7 1 -6 1 -7 2 -6 1 -5 1 -5 1 -4 0 -4 1 -3 1 -3 0 -2 0 -1 1 -1 15 4 0 1 0 1 -1 2 0 2 -1 3 -1 4 -1 4 -1 5 -1 5 -1 6 -1 6 -1 7 -1 7 -1 7 -1 7 -1 8 0 7 -1 8 0 8 -1 8 0 8 0 8 0 8 1 8 1 7 1 8 1 7 1 6 2 7 2 6 3 6 3 5 0 0 -14 8zm144 10l0 0 -2 4 -3 4 -3 4 -4 3 -3 4 -4 3 -4 2 -5 3 -4 2 -5 2 -5 1 -4 2 -5 1 -6 1 -5 0 -5 0 -5 0 -6 0 -5 -1 -5 -1 -6 -2 -5 -2 -5 -2 -5 -3 -5 -3 -5 -3 -5 -4 -4 -4 -5 -5 -4 -5 -4 -5 -3 -6 14 -8 3 5 3 4 3 5 4 3 4 4 4 3 4 3 4 2 4 2 4 2 4 2 5 1 4 1 4 1 5 0 4 0 4 0 4 0 5 -1 4 -1 4 -1 4 -1 3 -2 4 -2 3 -1 3 -3 3 -2 3 -2 3 -3 2 -3 2 -3 2 -3 0 0 14 8zm-114 -51l0 0 0 -8 2 -7 2 -6 3 -6 4 -6 5 -4 5 -4 5 -3 6 -3 7 -2 6 -1 6 0 7 0 7 0 6 1 7 2 6 2 6 3 6 4 6 3 5 5 5 5 4 6 3 6 3 6 2 7 1 8 0 8 -1 8 -2 9 -4 9 -4 9 -14 -8 4 -8 2 -7 2 -7 1 -6 0 -6 -1 -6 -1 -5 -2 -4 -3 -5 -3 -4 -3 -3 -4 -4 -4 -3 -5 -2 -5 -3 -5 -2 -5 -1 -5 -1 -6 0 -5 0 -5 0 -5 1 -4 1 -5 2 -3 2 -4 3 -3 3 -2 3 -2 4 -2 4 -1 5 0 6 0 0 -16 0zm71 -2l2 4 0 4 0 4 0 3 -1 4 -2 3 -2 3 -2 3 -2 2 -3 3 -3 2 -3 2 -3 1 -3 2 -4 1 -3 1 -4 0 -3 0 -4 0 -4 0 -3 -1 -4 -1 -3 -2 -3 -2 -3 -3 -3 -3 -3 -4 -1 -4 -2 -4 -1 -5 -1 -5 0 -6 16 0 0 4 1 4 0 3 1 3 2 2 1 2 1 2 2 1 1 1 2 1 1 1 2 0 2 0 2 0 3 0 2 0 2 -1 2 -1 2 0 2 -1 2 -2 2 -1 1 -1 2 -2 1 -1 1 -2 0 -1 1 -1 0 -2 0 -1 0 -1 -1 -2 15 -6z"/>
    </g>
    <g>
     <path fill="#B0CB1F" fill-rule="nonzero" d="M274 95l12 10 0 0 -8 11 -7 11 -7 11 -6 11 -4 10 -4 10 -3 10 -2 10 -2 10 0 9 0 10 1 9 1 8 2 9 3 8 4 8 4 8 5 7 5 8 6 6 7 7 7 6 8 6 9 6 9 5 9 5 10 5 11 4 10 4 12 3 12 3 12 2 -3 16 -13 -2 -12 -3 -12 -4 -12 -4 -11 -4 -11 -5 -10 -5 -10 -6 -9 -6 -9 -7 -8 -7 -7 -7 -7 -8 -6 -8 -6 -9 -5 -9 -4 -9 -3 -10 -3 -9 -1 -10 -1 -11 0 -10 0 -11 2 -11 2 -11 4 -11 4 -11 5 -11 6 -12 7 -11 8 -12 9 -12 0 0zm51 -84l-11 12 14 -6 0 0 -1 1 0 0 0 1 0 1 0 1 0 2 0 1 -1 2 0 2 0 2 -1 2 0 3 -1 2 -1 3 -1 3 -1 3 -1 3 -1 3 -2 4 -1 3 -2 4 -2 4 -2 4 -2 4 -3 4 -2 4 -3 4 -3 5 -4 4 -3 5 -4 4 -12 -10 3 -4 3 -4 3 -5 3 -4 3 -4 2 -4 3 -3 2 -4 2 -4 1 -3 2 -4 1 -3 2 -3 1 -3 1 -3 1 -2 1 -3 0 -2 1 -2 0 -3 1 -1 0 -2 1 -2 0 -1 0 -2 0 -1 0 -1 0 0 0 -1 0 0 0 0 0 0 14 -6zm-14 6l0 -17 14 11 -14 6zm141 165l-16 2 0 0 -1 -6 -2 -6 -2 -7 -3 -7 -3 -6 -3 -7 -4 -7 -4 -7 -5 -7 -4 -7 -5 -7 -6 -6 -5 -7 -5 -6 -6 -7 -5 -6 -6 -6 -5 -5 -6 -6 -5 -5 -5 -5 -5 -4 -4 -5 -5 -3 -4 -4 -3 -3 -3 -3 -3 -2 -2 -2 -1 -1 -1 -1 -1 0 11 -12 0 0 1 1 2 1 2 2 2 2 4 3 3 3 4 4 4 4 5 4 5 4 5 5 6 6 5 5 6 6 5 6 6 7 6 6 5 7 6 7 5 7 6 7 5 7 5 7 4 8 4 7 4 8 3 7 3 8 3 7 1 8 2 7 0 0zm-116 100l7 -14 0 0 3 1 4 1 3 1 4 1 4 0 4 0 4 0 5 -1 4 0 4 -1 4 -2 4 -1 4 -2 4 -2 4 -3 4 -2 3 -3 4 -3 3 -4 3 -3 3 -4 3 -4 2 -5 2 -4 2 -5 2 -5 1 -5 1 -5 1 -6 0 -6 0 -6 0 -6 16 -2 0 8 0 7 0 7 -1 6 -1 7 -2 6 -2 6 -2 6 -2 5 -3 5 -4 5 -3 5 -4 4 -4 4 -4 4 -5 3 -4 4 -5 3 -5 2 -5 2 -5 2 -5 2 -5 1 -5 1 -5 1 -5 0 -6 0 -5 0 -5 -1 -5 -1 -5 -2 -4 -2 0 0zm64 -115l-13 10 0 0 -4 -5 -4 -4 -4 -3 -4 -2 -5 -1 -4 -1 -5 0 -4 1 -5 1 -5 2 -5 2 -4 3 -5 4 -4 3 -4 5 -4 4 -3 5 -2 5 -3 5 -2 6 -1 5 0 5 0 6 0 5 2 5 2 6 3 5 4 5 5 5 5 5 7 4 9 5 -7 14 -10 -5 -8 -5 -7 -6 -6 -7 -6 -6 -4 -7 -2 -7 -2 -8 -1 -7 0 -7 0 -8 2 -7 2 -7 3 -6 3 -6 4 -6 5 -6 5 -5 5 -5 6 -4 5 -4 7 -3 6 -2 7 -2 6 -1 7 0 7 1 7 2 6 3 6 5 6 5 5 6 0 0zm-61 44l15 -4 1 1 1 1 1 2 1 1 1 0 1 1 2 1 2 0 2 1 2 0 3 0 2 0 2 -1 3 0 2 -1 3 -1 2 -1 2 -1 1 -2 2 -1 1 -2 1 -2 1 -1 1 -2 0 -2 1 -3 -1 -2 0 -3 -1 -3 -1 -3 -2 -4 -3 -3 13 -10 3 5 3 5 2 5 2 4 0 5 1 4 -1 5 0 4 -2 4 -2 3 -2 4 -2 3 -3 2 -3 3 -3 2 -4 2 -3 1 -4 1 -3 1 -4 1 -4 0 -3 0 -4 0 -4 -1 -3 -1 -3 -1 -4 -2 -3 -2 -3 -3 -2 -3 -2 -3 -1 -4z"/>
    </g>
    <g>
     <path fill="#B0CB1F" fill-rule="nonzero" d="M617 95l0 0 9 12 8 12 7 11 6 12 5 11 4 11 3 11 2 11 2 11 0 11 0 10 -1 11 -2 10 -3 10 -4 9 -4 9 -6 9 -6 9 -6 8 -7 8 -8 7 -9 7 -9 7 -10 6 -10 6 -11 6 -12 5 -12 5 -12 4 -13 4 -13 3 -14 3 -3 -16 13 -3 13 -3 12 -4 12 -4 11 -4 11 -5 10 -5 10 -5 9 -6 8 -6 8 -7 7 -7 7 -7 5 -7 6 -8 4 -7 4 -8 3 -9 3 -8 2 -9 1 -9 0 -9 0 -9 -2 -10 -2 -10 -3 -10 -3 -10 -5 -10 -5 -11 -7 -11 -7 -11 -9 -11 0 0 13 -10zm-51 -84l13 6 0 0 0 0 0 0 0 1 0 0 0 1 1 1 0 2 0 1 0 2 1 2 0 1 1 3 0 2 1 2 1 3 1 2 1 3 1 3 1 3 2 3 1 4 2 3 2 4 2 4 2 3 3 4 2 4 3 4 3 5 3 4 4 4 -13 10 -3 -4 -4 -5 -3 -4 -3 -5 -3 -4 -2 -4 -3 -4 -2 -4 -2 -4 -2 -4 -2 -4 -1 -3 -2 -4 -1 -3 -1 -3 -1 -3 -1 -3 -1 -3 -1 -2 -1 -3 0 -2 0 -2 -1 -2 0 -2 0 -1 -1 -2 0 -1 0 -1 0 -1 0 0 0 -1 0 0 13 6 -10 -12zm0 0l13 -11 0 17 -13 -6zm-127 171l0 0 1 -7 2 -8 2 -7 3 -8 4 -7 3 -8 5 -7 4 -8 5 -7 5 -7 5 -7 6 -7 5 -7 6 -7 6 -6 5 -7 6 -6 6 -6 5 -5 5 -6 6 -5 5 -4 4 -4 5 -4 4 -4 3 -3 3 -3 3 -2 2 -2 2 -1 1 -1 0 0 10 12 0 0 -1 1 -1 1 -3 2 -2 2 -3 3 -4 3 -4 4 -4 3 -4 5 -5 4 -5 5 -6 5 -5 6 -5 5 -6 6 -5 6 -6 7 -5 6 -6 7 -5 6 -5 7 -5 7 -4 7 -4 7 -4 7 -4 7 -3 6 -2 7 -2 7 -2 6 -1 6 0 0 -16 -2zm116 100l0 0 -5 2 -5 2 -5 1 -5 1 -5 0 -5 0 -5 0 -5 -1 -6 -1 -5 -1 -5 -2 -5 -2 -5 -2 -5 -2 -4 -3 -5 -4 -4 -3 -4 -4 -4 -4 -4 -4 -4 -5 -3 -5 -3 -5 -3 -5 -2 -6 -2 -6 -1 -6 -2 -7 0 -6 -1 -7 0 -7 1 -8 16 2 0 6 -1 6 1 6 0 6 1 5 2 5 1 5 2 5 2 4 3 5 3 4 2 4 4 3 3 4 3 3 4 3 4 2 4 3 3 2 5 2 4 1 4 2 4 1 4 0 4 1 4 0 4 0 4 0 4 -1 4 -1 4 -1 3 -1 0 0 7 14zm-64 -115l0 0 5 -6 6 -5 6 -5 6 -3 7 -2 7 -1 6 0 7 1 7 2 6 2 6 3 6 4 6 4 5 5 5 5 4 6 4 6 4 6 2 6 3 7 1 7 1 8 0 7 -1 7 -2 8 -3 7 -4 7 -5 6 -6 7 -7 6 -9 5 -9 5 -7 -14 8 -5 7 -4 6 -5 5 -5 4 -5 3 -5 2 -6 1 -5 1 -5 0 -6 -1 -5 -1 -5 -2 -6 -2 -5 -3 -5 -3 -5 -3 -4 -4 -5 -5 -3 -4 -4 -5 -3 -4 -2 -5 -2 -5 -1 -5 -1 -4 0 -5 1 -4 1 -4 2 -4 3 -4 4 -4 5 0 0 -13 -10zm61 44l-2 4 -1 3 -3 3 -3 3 -3 2 -3 2 -3 1 -4 1 -3 1 -4 0 -4 0 -3 0 -4 -1 -4 -1 -3 -1 -4 -1 -3 -2 -3 -2 -3 -3 -3 -2 -3 -3 -2 -4 -2 -3 -1 -4 -1 -4 0 -5 0 -4 1 -5 2 -4 2 -5 2 -5 4 -5 13 10 -3 3 -2 4 -1 3 -1 3 -1 3 0 2 0 3 1 2 0 2 1 1 1 2 2 2 1 1 2 2 2 1 2 1 2 1 3 1 2 0 3 1 2 0 2 0 3 0 2 -1 2 0 1 -1 2 -1 1 0 1 -1 1 -2 1 -1 0 -1 16 4z"/>
    </g>
    <g>
     <path fill="#B0CB1F" fill-rule="nonzero" d="M510 372l0 0 12 12 11 12 10 12 9 12 7 13 6 12 6 13 4 12 3 13 3 12 1 12 0 13 -1 12 -2 12 -2 11 -4 12 -4 11 -6 11 -6 11 -7 10 -8 10 -8 10 -10 9 -10 9 -10 8 -12 8 -12 8 -13 7 -13 6 -14 6 -14 6 -15 5 -5 -16 14 -4 14 -6 13 -5 13 -7 12 -6 11 -7 11 -8 10 -8 9 -8 9 -9 8 -8 7 -10 6 -9 6 -10 5 -9 4 -11 3 -10 3 -10 1 -11 1 -11 0 -11 -1 -11 -2 -11 -3 -11 -4 -11 -5 -12 -6 -11 -7 -12 -8 -11 -9 -12 -10 -11 -12 -12 0 0 11 -11zm-70 -90l14 4 0 0 0 1 0 0 1 1 0 1 0 1 0 1 1 1 0 2 1 2 1 2 0 2 1 2 1 3 2 2 1 3 1 3 2 3 2 4 2 3 2 3 3 4 2 4 3 4 3 4 3 4 4 4 3 4 4 4 4 5 5 4 4 5 -11 11 -5 -4 -4 -5 -5 -5 -4 -4 -4 -5 -3 -4 -4 -5 -3 -4 -3 -4 -3 -4 -2 -4 -3 -4 -2 -3 -2 -4 -2 -3 -1 -4 -2 -3 -1 -3 -2 -3 -1 -2 -1 -3 0 -2 -1 -2 -1 -2 0 -2 -1 -1 0 -2 0 -1 0 -1 -1 -1 0 0 0 0 14 4 -12 -11zm0 0l12 -12 2 16 -14 -4zm-118 217l0 0 0 -9 1 -9 1 -9 2 -9 3 -9 3 -9 4 -9 4 -10 4 -9 5 -9 5 -9 5 -9 5 -8 5 -9 6 -8 6 -8 5 -8 6 -8 5 -7 5 -7 6 -7 5 -6 4 -5 5 -6 4 -4 3 -5 3 -3 3 -3 2 -3 2 -1 1 -2 0 0 12 11 0 0 -1 1 -2 2 -2 3 -2 3 -4 3 -3 4 -4 5 -4 5 -5 5 -5 6 -5 7 -5 7 -5 7 -6 7 -5 8 -6 8 -5 8 -5 8 -5 9 -5 8 -5 9 -4 8 -5 9 -3 9 -4 8 -3 9 -2 8 -2 8 -1 8 -1 8 0 8 0 0 -16 0zm147 95l0 0 -5 3 -6 3 -5 2 -6 2 -5 1 -6 1 -6 0 -6 0 -6 0 -6 -1 -6 -1 -6 -1 -6 -2 -6 -2 -6 -3 -6 -3 -5 -3 -5 -3 -6 -4 -5 -5 -4 -5 -5 -5 -4 -5 -4 -6 -3 -6 -3 -7 -3 -6 -3 -7 -2 -8 -1 -8 -1 -8 0 -8 16 0 0 7 1 7 1 7 2 6 2 6 2 6 3 5 3 6 3 5 4 4 3 4 4 4 5 4 4 3 5 4 4 2 5 3 5 2 5 2 5 1 5 2 5 0 5 1 5 0 5 0 5 0 5 -1 4 -1 5 -1 4 -2 4 -2 4 -2 0 0 9 13zm-91 -120l0 0 5 -8 6 -7 6 -5 7 -5 7 -3 8 -2 7 -1 8 -1 8 1 7 2 8 3 7 3 7 4 7 4 6 5 6 6 5 6 5 7 4 7 4 7 3 8 2 8 1 8 0 9 -1 8 -2 9 -4 8 -4 9 -6 8 -8 8 -8 7 -10 7 -9 -13 9 -7 7 -6 6 -6 5 -7 4 -7 2 -6 2 -7 1 -6 0 -7 -1 -6 -2 -6 -2 -6 -3 -6 -3 -6 -4 -6 -5 -5 -5 -4 -5 -5 -6 -4 -5 -3 -6 -2 -6 -2 -6 -2 -6 0 -6 0 -5 0 -5 2 -5 2 -5 3 -4 4 -5 5 -3 7 0 0 -15 -8zm75 40l-1 4 -1 4 -2 4 -3 3 -3 3 -3 3 -4 2 -4 1 -4 2 -4 1 -4 0 -4 0 -4 0 -4 0 -5 -1 -4 -1 -4 -2 -4 -1 -3 -3 -4 -2 -3 -3 -3 -4 -3 -3 -2 -4 -1 -5 -1 -5 -1 -5 1 -5 1 -6 1 -5 2 -6 3 -6 15 8 -3 4 -2 5 -1 4 0 4 0 3 0 3 0 3 1 2 1 3 2 2 1 2 2 1 2 2 3 1 2 1 3 1 3 1 3 1 3 0 3 0 3 0 2 0 3 -1 3 -1 2 -1 2 -1 2 -1 1 -1 1 -2 1 -2 1 -1 0 -2 16 2z"/>
    </g>
    <g>
     <path fill="#B0CB1F" fill-rule="nonzero" d="M9 433l0 17 8 -9 1 22 2 21 3 22 4 20 5 21 6 20 7 19 8 20 9 18 9 18 11 18 11 17 12 17 13 16 13 15 14 15 15 14 15 13 17 12 16 12 17 11 18 10 19 10 18 8 20 8 19 7 20 6 21 4 21 4 21 3 21 2 22 1 0 16 -22 -1 -23 -2 -22 -3 -21 -4 -22 -5 -21 -6 -20 -7 -20 -8 -20 -9 -18 -9 -19 -11 -18 -11 -17 -13 -17 -13 -16 -13 -15 -15 -15 -15 -14 -16 -13 -17 -12 -17 -12 -17 -11 -19 -10 -19 -9 -19 -8 -20 -7 -20 -6 -21 -6 -21 -4 -22 -3 -22 -2 -22 -1 -22 8 -9zm-8 9l0 -9 8 0 -8 9zm264 74l-10 13 0 0 -6 -4 -7 -5 -7 -4 -6 -4 -7 -4 -7 -4 -7 -4 -8 -4 -7 -3 -7 -4 -7 -3 -8 -3 -7 -4 -8 -2 -8 -3 -8 -3 -7 -2 -8 -3 -8 -2 -8 -2 -8 -2 -8 -2 -8 -1 -9 -2 -8 -1 -8 -1 -9 -1 -8 -1 -8 -1 -9 0 -9 0 -8 0 0 -17 9 1 9 0 9 0 8 1 9 1 9 1 8 1 9 1 9 2 8 2 8 1 9 2 8 3 8 2 8 2 9 3 8 3 8 2 7 3 8 4 8 3 8 3 7 4 8 4 7 4 8 4 7 4 7 4 7 4 7 5 7 5 7 4 0 0zm180 365l0 -16 -8 8 0 -13 -1 -14 -1 -13 -2 -12 -2 -13 -2 -13 -3 -12 -3 -13 -4 -12 -4 -12 -4 -12 -4 -12 -5 -11 -5 -12 -6 -11 -5 -11 -6 -11 -7 -11 -6 -10 -7 -11 -8 -10 -7 -9 -8 -10 -8 -9 -8 -10 -9 -9 -9 -8 -9 -9 -9 -8 -10 -8 -10 -7 -10 -8 10 -13 10 8 10 8 10 8 10 8 9 9 9 9 9 9 9 10 8 10 8 10 8 10 8 10 7 11 7 11 7 11 6 11 6 12 5 11 6 12 5 12 4 12 5 13 4 12 3 13 4 13 2 13 3 13 2 13 2 14 1 13 1 14 0 13 -8 9zm8 -9l0 9 -8 0 8 -9z"/>
    </g>
    <g>
     <path fill="#B0CB1F" fill-rule="nonzero" d="M402 823l9 10 -7 6 -103 15 -2 -16 103 -15zm9 10l-1 5 -6 1 7 -6zm1 -103l15 2 -16 101 -16 -3 17 -100z"/>
    </g>
    <g>
     <path fill="#B0CB1F" fill-rule="nonzero" d="M341 763l9 9 -7 7 -147 21 -2 -16 147 -21zm9 9l-1 6 -6 1 7 -7zm4 -151l16 2 -20 149 -16 -2 20 -149z"/>
    </g>
    <g>
     <path fill="#B0CB1F" fill-rule="nonzero" d="M273 696l9 9 -7 7 -152 21 -2 -16 152 -21zm9 9l0 7 -7 0 7 -7zm4 -156l16 2 -20 154 -16 -2 20 -154z"/>
    </g>
    <g>
     <path fill="#B0CB1F" fill-rule="nonzero" d="M206 630l9 9 -7 7 -137 20 -2 -16 137 -20zm9 9l-1 6 -6 1 7 -7zm3 -140l16 2 -19 138 -16 -2 19 -138z"/>
    </g>
    <g>
     <path fill="#B0CB1F" fill-rule="nonzero" d="M147 572l9 9 -7 7 -108 16 -2 -16 108 -16zm9 9l-1 6 -6 1 7 -7zm-1 -112l16 2 -15 110 -16 -3 15 -109z"/>
    </g>
    <g>
     <path fill="#B0CB1F" fill-rule="nonzero" d="M95 519l10 9 -7 7 -73 11 -3 -16 73 -11zm10 9l-1 6 -6 1 7 -7zm-6 -76l16 2 -10 74 -16 -2 10 -74z"/>
    </g>
    <g>
     <path fill="#B0CB1F" fill-rule="nonzero" d="M51 476l9 9 -7 7 -39 6 -3 -16 40 -6zm9 9l-1 6 -6 1 7 -7zm-11 -42l16 2 -5 40 -16 -2 5 -40z"/>
    </g>
    <g>
     <path fill="#B0CB1F" fill-rule="nonzero" d="M882 433l8 9 -1 22 -2 22 -3 22 -4 22 -5 21 -7 21 -7 20 -8 20 -9 19 -10 19 -11 19 -11 17 -13 17 -13 17 -14 16 -15 15 -15 15 -16 13 -17 13 -17 13 -18 11 -18 11 -19 9 -20 9 -20 8 -20 7 -21 6 -21 5 -22 4 -22 3 -22 2 -23 1 0 -16 22 -1 21 -2 21 -3 21 -4 21 -4 20 -6 20 -7 19 -8 19 -8 18 -10 18 -10 17 -11 17 -12 16 -12 15 -13 15 -14 14 -15 14 -15 12 -16 12 -17 11 -17 11 -18 9 -18 9 -18 8 -20 7 -19 6 -20 5 -21 4 -20 3 -22 2 -21 1 -22 8 9 0 -17zm0 0l8 0 0 9 -8 -9zm-256 83l0 0 7 -4 7 -5 7 -5 7 -4 7 -4 8 -4 7 -4 7 -4 8 -4 7 -4 8 -3 8 -3 8 -4 8 -3 8 -2 8 -3 8 -3 8 -2 8 -2 8 -3 9 -2 8 -1 9 -2 8 -2 9 -1 8 -1 9 -1 9 -1 9 -1 8 0 9 0 9 -1 0 17 -8 0 -9 0 -8 0 -9 1 -8 1 -9 1 -8 1 -8 1 -8 2 -9 1 -8 2 -8 2 -8 2 -8 2 -8 3 -7 2 -8 3 -8 3 -7 2 -8 4 -7 3 -8 3 -7 4 -7 3 -7 4 -8 4 -7 4 -6 4 -7 4 -7 4 -7 5 -6 4 0 0 -10 -13zm-180 365l-8 -9 0 -13 1 -14 2 -13 1 -14 2 -13 3 -13 3 -13 3 -13 3 -13 4 -12 5 -13 4 -12 5 -12 6 -12 5 -11 6 -12 7 -11 6 -11 7 -11 7 -11 8 -10 8 -10 8 -10 8 -10 9 -10 9 -9 9 -9 9 -9 10 -8 10 -8 10 -8 10 -8 10 13 -10 8 -10 7 -10 8 -9 8 -9 9 -9 8 -8 9 -9 10 -8 9 -8 10 -7 9 -7 10 -7 11 -7 10 -6 11 -6 11 -6 11 -6 11 -5 12 -5 11 -4 12 -4 12 -4 12 -4 12 -3 13 -2 12 -3 13 -2 13 -1 12 -2 13 -1 14 0 13 -8 -8 0 16zm0 0l-8 0 0 -9 8 9z"/>
    </g>
    <g>
     <path fill="#B0CB1F" fill-rule="nonzero" d="M489 823l104 15 -3 16 -103 -15 -7 -6 9 -10zm-2 16l-6 -1 -1 -5 7 6zm-7 -109l16 100 -16 3 -16 -101 16 -2z"/>
    </g>
    <g>
     <path fill="#B0CB1F" fill-rule="nonzero" d="M550 763l148 21 -3 16 -147 -21 -7 -7 9 -9zm-2 16l-6 -1 -1 -6 7 7zm-10 -158l19 149 -16 2 -19 -149 16 -2z"/>
    </g>
    <g>
     <path fill="#B0CB1F" fill-rule="nonzero" d="M618 696l152 21 -2 16 -152 -21 -7 -7 9 -9zm-2 16l-6 0 -1 -7 7 7zm-11 -163l20 154 -16 2 -20 -154 16 -2z"/>
    </g>
    <g>
     <path fill="#B0CB1F" fill-rule="nonzero" d="M685 630l137 20 -2 16 -137 -20 -7 -7 9 -9zm-2 16l-6 -1 -1 -6 7 7zm-10 -147l19 138 -16 2 -19 -138 16 -2z"/>
    </g>
    <g>
     <path fill="#B0CB1F" fill-rule="nonzero" d="M744 572l108 16 -2 16 -108 -16 -7 -7 9 -9zm-2 16l-6 -1 -1 -6 7 7zm-6 -119l15 109 -16 3 -15 -110 16 -2z"/>
    </g>
    <g>
     <path fill="#B0CB1F" fill-rule="nonzero" d="M796 519l73 11 -2 16 -74 -11 -6 -7 9 -9zm-3 16l-6 -1 0 -6 6 7zm-1 -83l11 74 -16 2 -10 -74 15 -2z"/>
    </g>
    <g>
     <path fill="#B0CB1F" fill-rule="nonzero" d="M841 476l39 6 -3 16 -39 -6 -7 -7 10 -9zm-3 16l-6 -1 -1 -6 7 7zm4 -49l5 40 -16 2 -5 -40 16 -2z"/>
    </g>
   </g>
  </g>
 </g>
</svg>
