<?xml version="1.0" encoding="UTF-8"?>
<!DOCTYPE svg PUBLIC "-//W3C//DTD SVG 1.1//EN" "http://www.w3.org/Graphics/SVG/1.1/DTD/svg11.dtd">
<!-- Creator: CorelDRAW X8 -->
<svg xmlns="http://www.w3.org/2000/svg" xml:space="preserve" width="1436px" height="1154px" version="1.1" shape-rendering="geometricPrecision" text-rendering="geometricPrecision" image-rendering="optimizeQuality" fill-rule="evenodd" clip-rule="evenodd"
viewBox="0 0 1382 1111"
 xmlns:xlink="http://www.w3.org/1999/xlink">
 <g id="Layer_x0020_1">
  <metadata id="CorelCorpID_0Corel-Layer"/>
  <g id="_2086217357312">
   <path fill="none" stroke="#B0CB1F" stroke-width="8.35345" d="M867 451c-75,-93 -72,-180 50,-215 49,-14 65,-37 65,-37 0,0 33,117 4,169 -29,52 -93,45 -112,12 -45,-79 83,-108 84,-43 1,47 -57,26 -48,2"/>
   <path fill="none" stroke="#B0CB1F" stroke-width="8.42056" d="M591 459c72,-94 68,-187 -53,-219 -49,-13 -66,-35 -66,-35 0,0 -30,117 0,168 30,51 94,42 112,8 42,-79 -86,-104 -85,-40 0,47 57,25 48,1"/>
   <path fill="none" stroke="#B0CB1F" stroke-width="7.92577" d="M677 296c-117,-20 -176,-113 -93,-217 33,-42 34,-72 34,-72 0,0 99,81 106,143 7,63 -53,96 -90,79 -86,-41 7,-144 47,-89 29,41 -33,58 -40,32"/>
   <path fill="none" stroke="#B0CB1F" stroke-width="7.92577" d="M763 298c126,-23 187,-115 104,-219 -34,-42 -34,-72 -34,-72 0,0 -99,81 -106,143 -7,63 53,96 89,79 87,-41 -6,-144 -46,-89 -30,41 33,58 40,32"/>
   <path fill="none" stroke="#B0CB1F" stroke-width="6.82472" d="M694 588c137,-42 195,-165 82,-271 -45,-43 -50,-77 -50,-77 0,0 -101,107 -100,181 2,73 76,101 116,76 93,-61 -30,-164 -68,-94 -27,51 47,61 51,29"/>
   <path fill="none" stroke="#B0CB1F" stroke-width="8.22037" d="M725 741c-204,-2 -370,-166 -374,-370 81,1 155,27 216,70 94,67 156,176 158,300z"/>
   <polyline fill="none" stroke="#B0CB1F" stroke-width="7.66074" points="601,718 689,706 703,620 "/>
   <polyline fill="none" stroke="#B0CB1F" stroke-width="4.38943" points="511,672 637,654 654,526 "/>
   <polyline fill="none" stroke="#B0CB1F" stroke-width="4.38943" points="448,614 579,597 596,464 "/>
   <polyline fill="none" stroke="#B0CB1F" stroke-width="4.71702" points="404,557 521,540 537,421 "/>
   <polyline fill="none" stroke="#B0CB1F" stroke-width="5.97163" points="378,504 471,490 483,396 "/>
   <polyline fill="none" stroke="#B0CB1F" stroke-width="8.83005" points="364,454 426,445 435,382 "/>
   <polyline fill="none" stroke="#B0CB1F" stroke-width="16.4476" points="354,413 388,408 393,374 "/>
   <path fill="none" stroke="#B0CB1F" stroke-width="8.22037" d="M726 741c204,-2 370,-166 374,-370 -80,1 -155,27 -215,70 -95,67 -157,176 -159,300z"/>
   <polyline fill="none" stroke="#B0CB1F" stroke-width="7.66074" points="851,718 762,706 748,620 "/>
   <polyline fill="none" stroke="#B0CB1F" stroke-width="4.38943" points="941,672 814,654 798,526 "/>
   <polyline fill="none" stroke="#B0CB1F" stroke-width="4.38943" points="1003,614 872,597 856,464 "/>
   <polyline fill="none" stroke="#B0CB1F" stroke-width="4.71702" points="1047,557 930,540 914,421 "/>
   <polyline fill="none" stroke="#B0CB1F" stroke-width="5.97163" points="1073,504 981,490 968,396 "/>
   <polyline fill="none" stroke="#B0CB1F" stroke-width="8.83005" points="1088,454 1025,445 1016,382 "/>
   <polyline fill="none" stroke="#B0CB1F" stroke-width="16.4476" points="1097,413 1063,408 1059,374 "/>
   <polygon fill="#5B5B5B" fill-rule="nonzero" points="92,986 122,986 210,761 182,761 108,954 34,761 5,761 "/>
   <path fill="#5B5B5B" fill-rule="nonzero" d="M277 876c0,-13 1,-25 3,-36 3,-11 7,-21 12,-30 6,-8 14,-15 24,-20 9,-4 22,-7 36,-6l0 -29c-12,0 -23,2 -33,5 -9,3 -17,8 -24,15 -7,7 -12,17 -17,29l-1 0 0 -43 -26 0 0 225 26 0 0 -110z"/>
   <polygon fill="#5B5B5B" fill-rule="nonzero" points="426,986 426,761 400,761 400,986 "/>
   <polygon fill="#5B5B5B" fill-rule="nonzero" points="518,986 518,901 562,861 647,986 677,986 581,843 666,761 630,761 518,868 518,674 492,674 492,986 "/>
   <path fill="#5B5B5B" fill-rule="nonzero" d="M703 916c0,11 2,21 6,30 5,9 10,17 18,24 7,7 16,13 26,17 11,3 23,5 36,5 14,0 26,-1 37,-4 12,-3 22,-7 30,-12 8,-6 15,-13 19,-21 5,-8 7,-17 7,-28 0,-11 -2,-20 -6,-27 -4,-7 -10,-13 -17,-18 -7,-5 -14,-9 -23,-12 -9,-3 -18,-5 -27,-7 -9,-2 -18,-5 -27,-7 -8,-2 -16,-5 -23,-8 -7,-3 -13,-7 -17,-12 -4,-5 -6,-11 -6,-19 0,-7 2,-14 6,-20 4,-6 10,-10 17,-13 8,-4 17,-5 28,-5 12,0 21,1 30,4 9,3 16,8 21,15 6,7 9,17 11,28l27 0c-2,-17 -7,-30 -15,-41 -7,-10 -17,-18 -30,-23 -12,-4 -27,-7 -43,-7 -17,0 -31,3 -43,9 -12,5 -21,13 -28,22 -6,10 -9,21 -9,34 0,11 2,20 6,27 4,7 10,13 17,18 7,4 14,8 23,10 9,3 18,5 27,7 9,2 18,4 27,6 8,2 16,4 23,7 7,4 13,8 17,13 4,5 6,11 6,19 0,8 -2,15 -6,21 -4,6 -10,11 -19,15 -8,4 -19,6 -31,6 -14,0 -25,-2 -34,-5 -9,-4 -16,-9 -22,-17 -6,-8 -10,-18 -13,-31l-26 0z"/>
   <path fill="#5B5B5B" fill-rule="nonzero" d="M961 986l0 -121c0,-8 0,-15 0,-22 1,-6 3,-13 5,-20 3,-8 7,-15 13,-22 6,-7 13,-12 22,-16 8,-4 18,-6 29,-6 14,0 25,2 34,7 9,4 15,11 19,20 4,9 6,20 6,34l0 146 26 0 0 -147c0,-6 0,-12 0,-18 -1,-6 -2,-12 -3,-17 -2,-6 -5,-11 -8,-17 -6,-7 -12,-14 -19,-18 -8,-5 -16,-8 -24,-11 -9,-2 -18,-3 -27,-3 -10,0 -20,2 -28,5 -9,3 -17,8 -24,13 -7,6 -14,12 -21,20l0 -119 -27 0 0 312 27 0z"/>
   <path fill="#5B5B5B" fill-rule="nonzero" d="M1328 903c0,12 -2,22 -7,30 -4,8 -11,15 -19,20 -8,6 -16,10 -26,12 -10,3 -20,4 -31,4 -6,0 -12,-1 -18,-2 -6,-2 -11,-5 -16,-8 -5,-3 -8,-7 -11,-12 -3,-6 -4,-12 -4,-18 0,-11 2,-19 8,-26 5,-6 12,-12 22,-15 9,-4 21,-6 34,-7 8,-1 15,-1 23,-2 8,-1 15,-2 23,-4 7,-1 15,-4 22,-7l0 35zm-81 -43c-26,3 -46,11 -60,22 -13,12 -19,27 -19,46 0,11 2,20 6,28 4,8 10,15 17,20 7,6 15,10 24,12 9,3 19,4 29,4 16,0 32,-3 46,-9 15,-6 28,-16 39,-28 0,5 0,10 2,15 1,5 3,9 6,12 3,4 7,6 13,7 2,0 4,0 6,1 2,0 4,0 6,0 2,0 5,0 8,-1 2,-1 5,-1 7,-2 2,0 4,-1 5,-1l0 -21c-7,3 -13,4 -17,4 -4,-1 -7,-3 -8,-6 -2,-3 -2,-8 -2,-15l0 -123c0,-13 -2,-24 -7,-33 -4,-9 -10,-16 -17,-21 -8,-6 -17,-10 -27,-12 -10,-3 -20,-4 -32,-4 -13,0 -24,2 -35,4 -11,3 -21,8 -29,14 -9,6 -15,13 -21,23 -5,9 -8,20 -9,34l27 0c2,-13 5,-24 11,-31 6,-7 14,-13 23,-16 9,-3 20,-4 32,-4 14,0 25,2 33,6 9,4 15,9 19,16 3,7 5,14 5,23 0,3 0,6 0,9 -1,3 -2,6 -3,9 -1,2 -3,4 -6,6 -3,1 -7,2 -11,3 -4,1 -9,2 -13,3 -4,0 -8,1 -11,1l-37 5z"/>
   <polygon fill="#5B5B5B" points="0,981 1381,981 1381,1001 0,1001 "/>
   <path fill="#5B5B5B" fill-rule="nonzero" d="M9 1073c1,0 1,-1 1,-2 0,-1 1,-1 1,-2 1,-1 1,-1 2,-2 1,0 3,0 4,0 3,0 5,0 7,1 1,1 2,3 2,4 0,1 -1,2 -1,3 0,1 -1,1 -1,1 0,0 -1,0 -1,0l-10 2c-2,0 -4,0 -5,1 -1,1 -2,1 -3,2 -1,1 -1,2 -2,3 0,1 0,2 0,2 -1,1 -1,2 -1,3 0,2 1,3 2,5 1,1 2,2 4,3 1,1 3,2 5,2 2,0 3,-1 5,-1 1,0 2,-1 3,-1 1,-1 2,-2 3,-2 1,-1 1,-1 2,-2 0,1 0,1 0,2 0,1 1,1 1,2 0,0 1,0 2,1 1,0 2,0 3,0 1,0 1,0 2,0 0,0 1,0 1,0l0 -5c0,0 0,0 -1,1 0,0 0,0 -1,0 0,0 -1,-1 -1,-1 0,0 -1,-1 -1,-1l0 -20c0,-2 0,-3 0,-4 -1,-1 -2,-2 -2,-3 -1,-1 -2,-1 -3,-2 -1,0 -2,0 -3,-1 -1,0 -2,0 -3,0 0,0 -1,0 -2,0 -2,0 -5,0 -7,1 -2,1 -4,2 -5,4 -1,1 -2,4 -2,6l5 0zm16 13c0,1 0,2 0,3 -1,1 -2,2 -3,2 -1,1 -2,2 -3,2 -2,1 -3,1 -4,1 -2,0 -4,-1 -5,-2 -1,-1 -2,-2 -2,-4 0,-1 1,-2 1,-3 1,-1 1,-1 2,-2 1,0 2,0 2,-1 1,0 2,0 3,0 2,0 3,0 4,-1 1,0 2,0 3,0 1,0 1,0 2,-1 0,0 0,0 0,0l0 6zm130 -4c0,-1 0,-3 0,-4 1,-1 1,-2 1,-4 0,-1 1,-2 2,-3 0,-1 1,-2 2,-3 2,-1 3,-1 5,-1 1,0 3,0 4,1 1,1 2,1 3,2 1,1 1,2 1,4 1,1 1,2 1,3 0,1 0,2 0,3 0,2 0,4 0,5 -1,2 -1,3 -2,5 -1,1 -2,2 -3,3 -1,0 -3,1 -4,1 -1,0 -2,-1 -3,-1 -1,0 -1,0 -2,-1 -1,0 -2,-1 -3,-2 0,-1 -1,-2 -1,-3 -1,-2 -1,-3 -1,-5zm-5 29l5 0 0 -17 1 0c0,1 1,2 2,2 1,1 2,1 3,2 1,0 2,1 4,1 2,0 4,-1 5,-1 2,-1 3,-2 4,-3 1,-1 2,-2 3,-3 1,-1 1,-3 2,-4 0,-2 1,-3 1,-5 0,-1 0,-2 0,-4 0,-2 0,-5 -1,-7 0,-2 -1,-4 -3,-5 -1,-2 -2,-3 -4,-4 -2,-1 -4,-1 -6,-1 -2,0 -3,0 -4,0 -2,1 -3,1 -3,2 -1,1 -2,1 -2,2 -1,1 -1,1 -2,2l0 0 0 -5 -5 0 0 48zm89 -34c0,-1 0,-2 1,-3 0,-1 1,-2 1,-3 1,-1 2,-2 3,-2 1,-1 2,-1 4,-1l2 0 0 -6c0,0 0,0 -1,0 0,0 0,0 -1,0 -1,0 -2,0 -4,1 -1,0 -2,1 -3,2 -1,1 -2,2 -2,4l0 0 0 -6 -6 0 0 35 6 0 0 -21zm84 10c0,0 0,1 -1,2 0,1 -1,1 -1,2 -1,1 -2,1 -3,2 -1,0 -2,1 -4,1 -2,0 -4,-1 -5,-2 -2,-1 -3,-2 -4,-4 0,-1 -1,-3 -1,-6l26 0c0,-3 -1,-6 -1,-8 -1,-3 -2,-5 -3,-7 -1,-1 -3,-3 -5,-4 -2,-1 -4,-1 -6,-1 -3,0 -6,0 -8,1 -2,1 -4,3 -5,4 -1,2 -2,4 -3,7 -1,2 -1,4 -1,7 0,3 0,5 1,7 1,2 2,4 3,6 1,1 3,2 5,3 2,1 4,2 6,2 2,0 4,-1 5,-1 1,0 2,0 3,-1 1,0 1,0 2,-1 1,-1 2,-1 3,-2 0,-1 1,-2 2,-3 0,-1 0,-2 1,-3 0,0 0,-1 0,-1l-6 0zm-19 -10c0,-1 0,-2 1,-3 0,-2 1,-3 2,-4 1,-1 2,-1 3,-2 1,-1 2,-1 4,-1 2,0 3,0 4,1 1,1 2,1 3,2 1,1 1,2 2,4 0,1 0,2 0,3l-19 0zm103 -4c0,-1 0,-1 0,-2 0,0 0,-1 -1,-2 0,-1 0,-1 -1,-2 -1,-1 -1,-2 -2,-3 -1,0 -2,-1 -4,-1 -1,-1 -3,-1 -5,-1 -2,0 -4,0 -5,1 -2,0 -3,1 -4,2 -2,0 -3,2 -3,3 -1,1 -1,3 -1,5 0,2 0,3 1,4 0,1 1,2 2,3 2,0 3,1 5,1l6 2c2,0 3,1 4,1 1,1 2,1 3,2 0,0 0,1 0,2 0,1 0,2 0,3 -1,0 -1,1 -2,1 -1,1 -2,1 -3,1 -1,0 -2,1 -3,1 -2,0 -3,-1 -5,-1 -1,-1 -2,-1 -2,-2 -1,-1 -1,-2 -1,-2 -1,-1 -1,-2 -1,-3l-5 0c0,1 0,2 0,3 0,1 0,2 1,4 0,1 1,2 2,2 1,1 3,2 5,3 1,0 4,1 6,1 2,0 4,-1 6,-1 2,-1 3,-1 4,-2 1,-1 2,-3 3,-4 1,-2 1,-3 1,-5 0,-1 0,-3 -1,-4 0,-1 -1,-2 -3,-3 -1,-1 -3,-1 -6,-2l-5 -2c-2,0 -3,0 -4,-1 -1,0 -2,0 -2,-1 -1,-1 -1,-1 -1,-2 0,-1 0,-2 1,-2 0,-1 1,-1 1,-2 1,0 1,0 2,-1 1,0 1,0 2,0 0,0 1,0 1,0 2,0 3,0 5,1 1,0 1,0 2,1 1,1 1,1 1,2 0,1 0,1 0,2l6 0zm77 14c0,0 -1,1 -1,2 0,1 -1,1 -2,2 -1,1 -1,1 -3,2 -1,0 -2,1 -3,1 -2,0 -4,-1 -6,-2 -1,-1 -2,-2 -3,-4 -1,-1 -1,-3 -1,-6l25 0c0,-3 0,-6 -1,-8 0,-3 -1,-5 -3,-7 -1,-1 -2,-3 -4,-4 -2,-1 -4,-1 -7,-1 -3,0 -5,0 -7,1 -2,1 -4,3 -6,4 -1,2 -2,4 -3,7 0,2 -1,4 -1,7 0,3 1,5 2,7 0,2 1,4 3,6 1,1 3,2 4,3 2,1 5,2 7,2 2,0 3,-1 5,-1 1,0 2,0 2,-1 1,0 2,0 2,-1 2,-1 2,-1 3,-2 1,-1 2,-2 2,-3 1,-1 1,-2 1,-3 0,0 1,-1 1,-1l-6 0zm-19 -10c0,-1 0,-2 0,-3 1,-2 2,-3 2,-4 1,-1 2,-1 4,-2 1,-1 2,-1 3,-1 2,0 4,0 5,1 1,1 2,1 3,2 0,1 1,2 1,4 1,1 1,2 1,3l-19 0zm106 -3c0,-2 -1,-4 -1,-5 -1,-2 -1,-3 -2,-4 -1,0 -2,-1 -3,-2 -1,0 -2,-1 -3,-1 -1,0 -3,0 -4,0 -1,0 -2,0 -4,1 -1,0 -2,0 -3,1 0,1 -1,1 -2,2 0,1 -1,1 -1,2l0 0 0 -5 -6 0 0 35 6 0 0 -19c0,-2 0,-4 1,-5 0,-2 1,-3 1,-3 1,-1 2,-2 3,-3 0,0 1,0 2,-1 1,0 2,0 2,0 2,0 4,0 5,1 1,1 2,2 2,3 0,2 1,3 1,5l0 22 6 0 0 -24zm66 -6l0 -5 -5 0 0 -10 -6 0 0 10 -5 0 0 5 5 0 0 23c0,1 0,2 0,3 0,0 1,1 1,2 1,1 1,1 2,1 1,1 2,1 4,1 0,0 1,0 1,0 1,0 2,0 3,0l0 -5 -2 0c0,0 -1,0 -1,0 0,0 -1,0 -1,0 -1,-1 -1,-1 -1,-1 0,-1 0,-1 0,-2l0 -22 5 0zm56 5c0,0 0,-1 1,-2 0,-1 0,-1 1,-2 0,-1 1,-1 2,-2 1,0 3,0 4,0 3,0 5,0 6,1 2,1 2,3 2,4 0,1 0,2 0,3 0,1 -1,1 -1,1 -1,0 -1,0 -2,0l-9 2c-2,0 -4,0 -5,1 -1,1 -2,1 -3,2 -1,1 -2,2 -2,3 0,1 -1,2 -1,2 0,1 0,2 0,3 0,2 1,3 2,5 0,1 2,2 3,3 2,1 4,2 6,2 2,0 3,-1 5,-1 1,0 2,-1 3,-1 1,-1 2,-2 3,-2 0,-1 1,-1 2,-2 0,1 0,1 0,2 0,1 0,1 1,2 0,0 1,0 2,1 0,0 1,0 3,0 0,0 1,0 1,0 1,0 1,0 2,0l0 -5c0,0 -1,0 -1,1 0,0 -1,0 -1,0 -1,0 -1,-1 -1,-1 -1,0 -1,-1 -1,-1l0 -20c0,-2 0,-3 -1,-4 0,-1 -1,-2 -2,-3 0,-1 -1,-1 -2,-2 -1,0 -2,0 -3,-1 -1,0 -2,0 -3,0 -1,0 -1,0 -2,0 -3,0 -5,0 -7,1 -2,1 -4,2 -5,4 -1,1 -2,4 -2,6l5 0zm16 13c0,1 0,2 -1,3 0,1 -1,2 -2,2 -1,1 -2,2 -4,2 -1,1 -2,1 -4,1 -2,0 -3,-1 -4,-2 -1,-1 -2,-2 -2,-4 0,-1 0,-2 1,-3 0,-1 1,-1 2,-2 1,0 1,0 2,-1 1,0 2,0 3,0 1,0 3,0 4,-1 1,0 2,0 3,0 0,0 1,0 1,-1 1,0 1,0 1,0l0 6zm74 -18l0 -5 -6 0 0 -10 -6 0 0 10 -4 0 0 5 4 0 0 23c0,1 1,2 1,3 0,0 0,1 1,2 0,1 1,1 2,1 1,1 2,1 4,1 0,0 0,0 1,0 1,0 2,0 3,0l0 -5 -2 0c0,0 -1,0 -1,0 -1,0 -1,0 -1,0 -1,-1 -1,-1 -1,-1 -1,-1 -1,-1 -1,-2l0 -22 6 0zm57 -5l-6 0 0 35 6 0 0 -35zm0 -6l0 -7 -6 0 0 7 6 0zm52 23c0,2 0,4 0,6 1,1 1,3 2,5 1,1 2,2 3,4 2,1 3,2 5,2 2,1 4,1 6,2 2,-1 4,-1 6,-2 2,0 3,-1 4,-2 2,-2 3,-3 4,-4 0,-2 1,-4 1,-5 1,-2 1,-4 1,-6 0,-2 0,-3 -1,-5 0,-2 -1,-4 -1,-5 -1,-2 -2,-3 -4,-4 -1,-1 -2,-2 -4,-3 -2,-1 -4,-1 -6,-1 -2,0 -4,0 -6,1 -2,1 -3,2 -5,3 -1,1 -2,2 -3,4 -1,1 -1,3 -2,5 0,2 0,3 0,5zm6 0c0,-1 0,-2 0,-3 0,-1 1,-2 1,-4 0,-1 1,-2 2,-3 1,-1 2,-2 3,-2 1,-1 2,-1 4,-1 2,0 3,0 4,1 1,0 2,1 3,2 1,1 1,2 2,3 0,2 1,3 1,4 0,1 0,2 0,3 0,1 0,2 0,3 0,2 -1,3 -1,4 -1,1 -1,2 -2,3 -1,1 -2,2 -3,3 -1,0 -2,0 -4,0 -2,0 -3,0 -4,0 -1,-1 -2,-2 -3,-3 -1,-1 -2,-2 -2,-3 0,-1 -1,-2 -1,-4 0,-1 0,-2 0,-3zm106 -6c0,-2 0,-4 -1,-5 0,-2 -1,-3 -2,-4 0,0 -1,-1 -2,-2 -1,0 -2,-1 -4,-1 -1,0 -2,0 -3,0 -1,0 -3,0 -4,1 -1,0 -2,0 -3,1 -1,1 -2,1 -2,2 -1,1 -1,1 -1,2l-1 0 0 -5 -5 0 0 35 6 0 0 -19c0,-2 0,-4 0,-5 1,-2 1,-3 2,-3 1,-1 1,-2 2,-3 1,0 2,0 3,-1 1,0 1,0 2,0 2,0 3,0 4,1 1,1 2,2 3,3 0,2 0,3 0,5l0 22 6 0 0 -24zm123 8c0,-1 0,-3 0,-4 0,-1 0,-2 1,-4 0,-1 1,-2 1,-3 1,-1 2,-2 3,-3 1,-1 3,-1 4,-1 2,0 3,0 5,1 1,1 2,1 2,2 1,1 2,2 2,4 0,1 0,2 1,3 0,1 0,2 0,3 0,2 0,4 -1,5 0,2 -1,3 -2,5 0,1 -1,2 -3,3 -1,0 -2,1 -4,1 0,0 -1,-1 -2,-1 -1,0 -2,0 -3,-1 0,0 -1,-1 -2,-2 -1,-1 -1,-2 -2,-3 0,-2 0,-3 0,-5zm-6 29l6 0 0 -17 0 0c1,1 1,2 2,2 1,1 2,1 3,2 2,0 3,1 4,1 2,0 4,-1 6,-1 1,-1 3,-2 4,-3 1,-1 2,-2 3,-3 0,-1 1,-3 1,-4 1,-2 1,-3 1,-5 1,-1 1,-2 1,-4 0,-2 -1,-5 -1,-7 -1,-2 -2,-4 -3,-5 -1,-2 -3,-3 -5,-4 -1,-1 -3,-1 -6,-1 -1,0 -3,0 -4,0 -1,1 -2,1 -3,2 -1,1 -1,1 -2,2 0,1 -1,1 -1,2l0 0 0 -5 -6 0 0 48zm81 -31c0,2 0,4 0,6 1,1 2,3 2,5 1,1 2,2 4,4 1,1 2,2 4,2 2,1 4,1 6,2 2,-1 4,-1 6,-2 2,0 3,-1 4,-2 2,-2 3,-3 4,-4 0,-2 1,-4 2,-5 0,-2 0,-4 0,-6 0,-2 0,-3 0,-5 -1,-2 -2,-4 -2,-5 -1,-2 -2,-3 -4,-4 -1,-1 -2,-2 -4,-3 -2,-1 -4,-1 -6,-1 -2,0 -4,0 -6,1 -2,1 -3,2 -4,3 -2,1 -3,2 -4,4 0,1 -1,3 -2,5 0,2 0,3 0,5zm6 0c0,-1 0,-2 0,-3 0,-1 1,-2 1,-4 0,-1 1,-2 2,-3 1,-1 2,-2 3,-2 1,-1 2,-1 4,-1 2,0 3,0 4,1 1,0 2,1 3,2 1,1 2,2 2,3 0,2 1,3 1,4 0,1 0,2 0,3 0,1 0,2 0,3 0,2 -1,3 -1,4 0,1 -1,2 -2,3 -1,1 -2,2 -3,3 -1,0 -2,0 -4,0 -2,0 -3,0 -4,0 -1,-1 -2,-2 -3,-3 -1,-1 -2,-2 -2,-3 0,-1 -1,-2 -1,-4 0,-1 0,-2 0,-3zm85 -3c0,-1 0,-2 0,-3 1,-1 1,-2 2,-3 1,-1 2,-2 3,-2 1,-1 2,-1 4,-1l2 0 0 -6c-1,0 -1,0 -1,0 0,0 0,0 -1,0 -1,0 -3,0 -4,1 -1,0 -2,1 -3,2 -1,1 -2,2 -3,4l0 0 0 -6 -5 0 0 35 6 0 0 -21zm76 -9l0 -5 -6 0 0 -10 -6 0 0 10 -4 0 0 5 4 0 0 23c0,1 0,2 1,3 0,0 0,1 1,2 0,1 1,1 2,1 1,1 2,1 3,1 1,0 1,0 2,0 1,0 2,0 3,0l0 -5 -2 0c-1,0 -1,0 -1,0 -1,0 -1,0 -2,0 0,-1 0,-1 0,-1 -1,-1 -1,-1 -1,-2l0 -22 6 0z"/>
  </g>
 </g>
</svg>
