<?xml version="1.0" encoding="UTF-8"?>
<!DOCTYPE svg PUBLIC "-//W3C//DTD SVG 1.1//EN" "http://www.w3.org/Graphics/SVG/1.1/DTD/svg11.dtd">
<!-- Creator: CorelDRAW X8 -->
<svg xmlns="http://www.w3.org/2000/svg" xml:space="preserve" width="1133px" height="1109px" version="1.1" shape-rendering="geometricPrecision" text-rendering="geometricPrecision" image-rendering="optimizeQuality" fill-rule="evenodd" clip-rule="evenodd"
viewBox="0 0 608 595"
 xmlns:xlink="http://www.w3.org/1999/xlink">
 <g id="Layer_x0020_1">
  <metadata id="CorelCorpID_0Corel-Layer"/>
  <g id="_2086698589168">
   <path fill="none" stroke="#B0CB1F" stroke-width="8.98963" d="M417 358c-60,-74 -58,-144 39,-171 39,-12 52,-30 52,-30 0,0 26,93 3,135 -23,42 -74,36 -89,9 -36,-63 67,-86 67,-34 1,38 -45,21 -38,2"/>
   <path fill="none" stroke="#B0CB1F" stroke-width="9.06185" d="M196 364c58,-75 55,-149 -42,-174 -39,-10 -52,-28 -52,-28 0,0 -24,93 0,133 24,41 74,34 89,7 33,-63 -69,-83 -68,-32 1,38 46,20 38,1"/>
   <path fill="none" stroke="#B0CB1F" stroke-width="8.5297" d="M265 234c-93,-16 -140,-90 -74,-173 27,-33 27,-57 27,-57 0,0 79,64 85,114 5,50 -42,76 -72,63 -69,-33 5,-115 37,-71 24,32 -26,46 -32,25"/>
   <path fill="none" stroke="#B0CB1F" stroke-width="8.5297" d="M334 236c100,-19 149,-92 83,-175 -27,-33 -27,-57 -27,-57 0,0 -79,64 -85,114 -6,50 42,76 71,63 69,-33 -5,-115 -37,-71 -23,32 27,46 32,25"/>
   <path fill="none" stroke="#B0CB1F" stroke-width="7.34438" d="M279 467c109,-33 155,-131 65,-216 -36,-34 -40,-62 -40,-62 0,0 -81,86 -79,145 1,58 60,81 92,60 74,-48 -24,-131 -54,-75 -22,41 38,49 41,24"/>
   <path fill="none" stroke="#B0CB1F" stroke-width="8.84582" d="M304 589c-163,-1 -295,-132 -298,-295 64,1 123,22 171,56 75,53 125,140 127,239z"/>
   <polyline fill="none" stroke="#B0CB1F" stroke-width="8.24398" points="204,571 275,561 286,492 "/>
   <polyline fill="none" stroke="#B0CB1F" stroke-width="4.72415" points="133,534 233,520 247,418 "/>
   <polyline fill="none" stroke="#B0CB1F" stroke-width="4.72415" points="83,488 187,474 200,368 "/>
   <polyline fill="none" stroke="#B0CB1F" stroke-width="5.07575" points="47,443 141,429 154,334 "/>
   <polyline fill="none" stroke="#B0CB1F" stroke-width="6.42705" points="27,400 101,389 111,314 "/>
   <polyline fill="none" stroke="#B0CB1F" stroke-width="9.50215" points="15,360 65,353 72,303 "/>
   <polyline fill="none" stroke="#B0CB1F" stroke-width="17.7005" points="8,327 35,323 39,296 "/>
   <path fill="none" stroke="#B0CB1F" stroke-width="8.84582" d="M304 589c163,-1 295,-132 298,-295 -64,1 -123,22 -171,56 -75,53 -125,140 -127,239z"/>
   <polyline fill="none" stroke="#B0CB1F" stroke-width="8.24398" points="404,571 333,561 322,492 "/>
   <polyline fill="none" stroke="#B0CB1F" stroke-width="4.72415" points="475,534 375,520 361,418 "/>
   <polyline fill="none" stroke="#B0CB1F" stroke-width="4.72415" points="525,488 421,474 408,368 "/>
   <polyline fill="none" stroke="#B0CB1F" stroke-width="5.07575" points="560,443 467,429 454,334 "/>
   <polyline fill="none" stroke="#B0CB1F" stroke-width="6.42705" points="581,400 507,389 497,314 "/>
   <polyline fill="none" stroke="#B0CB1F" stroke-width="9.50215" points="592,360 542,353 535,303 "/>
   <polyline fill="none" stroke="#B0CB1F" stroke-width="17.7005" points="600,327 573,323 569,296 "/>
  </g>
 </g>
</svg>
